<?xml version="1.0" encoding="UTF-8"?>
<svg id="Layer_2" data-name="Layer 2" xmlns="http://www.w3.org/2000/svg" viewBox="0 0 531.69 668.64">
  <g id="Layer_2-2" data-name="Layer 2">
    <g>
      <path d="M118.53,586.21c3.37,7.98,5.65,13.4,9.27,21.96-19.56-7.16-35.44-15.06-46.12-30.48-7.16-10.34-3.65-23.55,8.59-27.65,10.13-3.4,22.1-4.86,32.56-3.08,32,5.44,55.91,24.42,74.81,50.07,4.97,6.75,9.36,13.93,13.79,21.06,18.4,29.6,48.17,40.62,80.5,27.44,9.09-3.71,16.74-12.7,23.21-20.75,11.63-14.47,20.68-31.13,32.99-44.93,17.3-19.39,39.98-30.43,66.06-33.11,6.8-.7,14.15-.22,20.69,1.66,18.17,5.22,23.31,22.89,9.15,35.21-11.55,10.06-25.93,16.87-39.06,25.12-1.01-1.06-2.02-2.13-3.02-3.2,2.33-5.65,4.67-11.29,8.53-20.63-10.36,1.15-19,.72-26.68,3.23-21.96,7.16-39.52,20.52-51.72,40.53-21.57,35.39-46.89,45.92-87.3,36.98-19.56-4.33-33.35-15.69-43-32.87-12.75-22.68-31.71-37.75-56.98-44.06-7.78-1.94-16.14-1.6-26.26-2.48Z"/>
      <path d="M446.39,356.1c47.1,12.05,69.87,49.62,81.22,96.54,6.7,27.72,4.81,55.68-3.14,83-10.91,37.53-33.58,65.83-70.28,80.06-23.57,9.13-48.59,14.52-72.96,21.58-.4-1.33-.79-2.67-1.19-4,17.18-6.89,34.66-13.09,51.47-20.78,83.98-38.41,111.76-142.49,56.92-217.37-11.7-15.98-29.42-27.54-42.05-39.03Z"/>
      <path d="M92.02,355.53c-57.91,30.61-77.41,79.56-75.29,138.59,3.02,84.17,62.18,116.84,133.79,138.85-66.44,8.62-135.59-46.7-147.95-116.26-13.25-74.6,25.98-147.06,89.45-161.17Z"/>
      <path d="M354.89,522.02c33.31-40.22,32.43-82.53,8.43-126.29-22.28-40.61-41.01-82.52-46.97-129.07-.76-5.93-1.11-11.92-.51-18.19,7.91,53.35,32.56,99.78,57.9,146.12,14.88,27.21,23.88,56.49,11.11,87.03-6.42,15.35-16.8,29.04-25.4,43.48-1.52-1.03-3.04-2.05-4.56-3.08Z"/>
      <path d="M212.95,253.54c.83,30.65-7.27,60.12-19.17,88.53-6.65,15.87-14.32,31.4-22.7,46.43-24.3,43.61-30.85,86.74,3.49,131.08-16.61-9.77-30.28-34.95-32.84-56.91-3.29-28.27,5.98-53.38,19.54-77.25,19.37-34.13,37.4-68.78,46.19-107.44,1.85-8.14,3.66-16.29,5.5-24.43Z"/>
      <path d="M133.49,254.33c31.17-96.52,32.3-123.15,11.77-251.12,33.08,73.34,33.71,179.47-11.77,251.12Z"/>
      <path d="M386.77,0c-21.69,82.59-23.03,164.49,8.46,248.71-42.69-61.79-43.42-168.3-8.46-248.71Z"/>
      <path d="M342.43,522.51c-18.43,27.29-40.94,49.91-76.47,49.78-35.76-.13-59.2-22.4-78.47-49.68,76.29,51.23,84.35,51.23,154.94-.1Z"/>
    </g>
  </g>
</svg>