<?xml version="1.0" encoding="UTF-8"?>
<svg id="Layer_2" data-name="Layer 2" xmlns="http://www.w3.org/2000/svg" viewBox="0 0 511.52 786.08">
  <g id="Layer_2-2" data-name="Layer 2">
    <g>
      <path d="M231.81,784.95c2.87-10.28,6.63-20.41,8.46-30.88,4.71-27.01.72-42.35-23.28-48.36-5.07-1.27-10.04-2.93-14.93-4.77-49.95-18.81-57.04-23.25-84.52-38.57-46.8-31.55-77.57-57.68-106.46-111.25-15.2-39.01-16.17-73.74,5.91-108.19,3.14-4.9,6.86-9.39,10.97-13.51,3.47-3.47,7.48-7.32,10.8-10.62,52.38-51.95,161-160.02,196.75-210.6,5.58-7.89,34.02-48.12,45.03-66.99,47.73-81.87,36.58-60.31,83.86-137.66.88-1.07.67-1.12,1.77-2.56,1.13-1.47,3.67-1.58,2.75,1.66-.23.79-1.37,2.22-2,3.34-58.51,105.17-54.46,107.8-117.94,205.32-27.55,47.04-143.89,167.46-181.95,206.59-9.84,10.12-20.56,18.94-28.97,30.28-16.97,22.89-23.84,47.39-19.88,73.03,1.93,12.54,6.59,24.51,13.2,35.34,38.03,62.2,57.69,74.25,118.83,107.4,4.97,2.69,10.11,5.07,15.36,7.17,14.68,5.87,42.43,19.65,51.8,22.04,32.79,8.36,45.33,31.18,33.49,63.04-3.91,10.53-10.77,19.97-16.31,29.89-1.65-.68-1.1-.45-2.74-1.14Z"/>
      <path d="M340.63,682.72c10.01-16.9,9.29-21.97-5.52-28.41-31.32-13.61-64.26-20.94-99.81-20.58,8.08,5.4,16.15,10.81,26.57,17.78-26.8,2.47-49.97.49-70.77-13.8-3.03-2.08-5.75-5.01-7.74-8.12-9.21-14.39-6.39-22.97,10.07-26.9,44.95-10.73,89.13-6.66,131.69,10.67,14.64,5.96,29.09,13.96,41.2,23.97,6.85,5.66,13.01,18.04,11.58,25.98-1.18,6.55-13.67,11.52-21.73,16.18-3.77,2.18-8.93,1.96-15.54,3.23Z"/>
      <path d="M503.83,538.38c12.84,42.07,10.83,82.59-15.42,119.17-30.35,42.29-73.86,51.94-123.25,45.05,39.46-8.65,78.9-17.52,105.66-51.37,26.14-33.07,31.71-72.33,33.01-112.85Z"/>
      <path d="M326.52,197.41c-6.2,16.55-48.63,109.83-91.96,152.29,1.11-2.54,3.85-5.54,5.01-8.06,11.1-17.84,5.59-7.74,32.55-50.51,20.54-31.47,37.85-63.03,54.4-93.72Z"/>
    </g>
  </g>
</svg>