<?xml version="1.0" encoding="UTF-8"?>
<svg id="Layer_2" data-name="Layer 2" xmlns="http://www.w3.org/2000/svg" viewBox="0 0 504.86 788.97">
  <g id="Layer_2-2" data-name="Layer 2">
    <g>
      <path d="M224.8,787.6c2.87-10.26,6.62-20.37,8.44-30.81,5.03-28.81-3-40.5-31.49-45.6-32.73-5.86-69.44-13.73-98.63-30-47.74-24.74-84.32-72.42-94.88-106.06-16.14-41.42-7.73-79.64,18.02-115.85,4.91-6.91,10.05-13.82,16.04-19.77,55.13-54.68,84.96-139.09,124.76-205.11C215.18,116.46,284.51,72.77,358.13,4.89c4.9-3.92,9.36-5.66,13.06-4.57-4.57,5.12-8.95,8.87-13.2,14.1-76.86,86.88-123.49,107.01-201.31,274.75-27.55,47.04-48.06,110.32-86.13,149.45-9.85,10.12-19.13,20.94-27.54,32.28-22.61,30.49-26.09,75.33-11.16,110.44,36.14,65.75,71.01,85.28,145.55,106.24,10.89,3.06,21.96,5.5,32.93,8.3,32.79,8.36,45.33,31.18,33.49,63.04-3.93,10.59-10.85,20.07-16.4,30.06-.88-.46-1.76-.91-2.64-1.37Z"/>
      <path d="M333.97,683.97c10.01-16.9,9.29-21.97-5.52-28.41-31.32-13.61-64.26-20.94-99.81-20.58,8.08,5.4,16.15,10.81,26.57,17.78-26.8,2.47-49.97.49-70.77-13.8-3.03-2.08-5.75-5.01-7.74-8.12-9.21-14.39-6.39-22.97,10.07-26.89,44.95-10.73,89.13-6.66,131.69,10.67,14.64,5.96,29.09,13.96,41.2,23.97,6.85,5.66,13.01,18.04,11.58,25.97-1.18,6.55-13.67,11.52-21.73,16.18-3.77,2.18-8.93,1.96-15.54,3.23Z"/>
      <path d="M497.17,539.62c12.84,42.07,10.83,82.59-15.42,119.17-30.35,42.29-73.86,51.94-123.25,45.05,39.46-8.65,78.9-17.52,105.66-51.37,26.14-33.07,31.71-72.33,33.01-112.85Z"/>
      <path d="M309.93,173.61c-44.52,41.76-49.56,106.04-88.52,151.14,1.11-2.54,2.17-5.1,3.33-7.62,9.25-20.07,19.21-39.85,27.61-60.26,13.16-31.98,30.31-60.97,57.59-83.26Z"/>
    </g>
  </g>
</svg>