<?xml version="1.0" encoding="UTF-8"?>
<svg id="Layer_2" data-name="Layer 2" xmlns="http://www.w3.org/2000/svg" viewBox="0 0 531.69 680.18">
  <defs>
    <style>
      .cls-1 {
        fill: #b7b7b7;
      }
    </style>
  </defs>
  <g id="Layer_2-2" data-name="Layer 2">
    <g>
      <path class="cls-1" d="M258.12,539.73c-.2-.66-5-16.55-7.56-44.13l6.86-.64c2.48,26.8,7.24,42.59,7.29,42.75l-6.59,2.02ZM256.06,451.32l-6.89-.19c.4-14.61,1.62-29.52,3.65-44.31l6.82.93c-1.99,14.54-3.2,29.2-3.59,43.56ZM267.81,364.8l-6.69-1.63c2.55-10.48,5.55-21.05,8.89-31.44,1.19-3.69,2.36-7.42,3.47-11.08l6.59,2.01c-1.13,3.7-2.3,7.46-3.51,11.19-3.3,10.23-6.24,20.64-8.76,30.96ZM291.55,279.83l-6.71-1.54c3.35-14.55,6.08-29.03,8.12-43.06l6.82.99c-2.07,14.21-4.83,28.88-8.22,43.61ZM304.14,192.01l-6.88-.35c.36-7.12.54-14.29.54-21.31,0-7.49-.21-15.03-.61-22.41l6.88-.38c.42,7.5.63,15.17.63,22.79,0,7.13-.18,14.42-.55,21.65ZM292.33,104.53c-2.42-14.28-5.71-28.61-9.76-42.57l6.61-1.92c4.13,14.22,7.47,28.8,9.93,43.34l-6.79,1.15ZM268.08,20.74c-2.46-5.93-5.1-11.92-7.87-17.81l6.23-2.93c2.81,5.98,5.5,12.07,8,18.1l-6.36,2.64Z"/>
      <g>
        <path d="M118.53,597.75c3.37,7.98,5.65,13.4,9.27,21.96-19.56-7.16-35.44-15.06-46.12-30.48-7.16-10.34-3.65-23.55,8.59-27.65,10.13-3.4,22.1-4.86,32.56-3.08,32,5.44,55.91,24.42,74.81,50.07,4.97,6.75,9.36,13.93,13.79,21.06,18.4,29.6,48.17,40.62,80.5,27.44,9.09-3.71,16.74-12.7,23.21-20.75,11.63-14.47,20.68-31.13,32.99-44.93,17.3-19.39,39.98-30.43,66.06-33.11,6.8-.7,14.15-.22,20.69,1.66,18.17,5.22,23.31,22.89,9.15,35.21-11.55,10.06-25.93,16.87-39.06,25.12-1.01-1.06-2.02-2.13-3.02-3.2,2.33-5.65,4.67-11.29,8.53-20.63-10.36,1.15-19,.72-26.68,3.23-21.96,7.16-39.52,20.52-51.72,40.53-21.57,35.39-46.89,45.92-87.3,36.98-19.56-4.33-33.35-15.69-43-32.87-12.75-22.68-31.71-37.75-56.98-44.06-7.78-1.94-16.14-1.6-26.26-2.48Z"/>
        <path d="M446.39,367.64c47.1,12.05,69.87,49.62,81.22,96.54,6.7,27.72,4.81,55.68-3.14,83-10.91,37.53-33.58,65.83-70.28,80.06-23.57,9.13-48.59,14.52-72.96,21.58-.4-1.33-.79-2.67-1.19-4,17.17-6.89,34.66-13.09,51.47-20.78,83.98-38.41,111.76-142.49,56.92-217.37-11.7-15.98-29.42-27.54-42.05-39.03Z"/>
        <path d="M92.02,367.07c-57.91,30.61-77.41,79.56-75.29,138.59,3.02,84.17,62.18,116.84,133.79,138.85-66.44,8.62-135.59-46.7-147.95-116.26-13.25-74.6,25.98-147.06,89.45-161.17Z"/>
        <path d="M351.22,527.16c29.7-21.22,40.87-87.42,16.87-131.18-15.85-39.78-18.29-48.36-20.3-67.59-.76-5.93-1.66-43.11,3.22-56.88-1.45,61.29,2.15,76.99,27.49,123.33,9.09,16.62,13.64,37.41,13.25,55.4-.48,21.87-2.43,25.78-11.7,46.9-1.69,3.84-2.19,4.21-4.93,9.17-1.77,3.21-8.73,11.8-14,15.42-1.68,1.15-9.36,5.79-9.9,5.42Z"/>
        <path d="M234.91,256.52c-10.65,33.76-34.19,77.48-41.53,93.39-6.65,15.87-15.92,35.1-24.29,50.13-24.3,43.61-30.85,86.74,3.49,131.08-16.61-9.77-30.28-34.95-32.84-56.91-3.29-28.27,5.98-53.38,19.54-77.25,18.06-34.37,20.81-38.81,47.24-85.75,7.58-16.11,17.4-32.88,28.41-54.69Z"/>
        <path d="M183.24,260.26c31.17-96.52,32.3-123.15,11.77-251.12,33.08,73.34,33.71,179.47-11.77,251.12Z"/>
        <path d="M385.23,11.54c21.69,82.59,23.03,164.49-8.46,248.71,42.69-61.79,43.42-168.3,8.46-248.71Z"/>
        <path d="M342.43,534.05c-18.43,27.29-40.94,49.91-76.47,49.78-35.76-.13-59.2-22.4-78.47-49.68,76.29,51.23,84.35,51.23,154.94-.1Z"/>
      </g>
    </g>
  </g>
</svg>