<svg width="24" height="24" viewBox="0 0 24 24" fill="none" xmlns="http://www.w3.org/2000/svg">
<path d="M11.1915 0.708923C11.6542 0.303243 12.3458 0.303243 12.8085 0.708923L13.0872 0.953303C13.4426 1.26491 13.9454 1.34455 14.3796 1.15801L14.7202 1.01171C15.2856 0.768857 15.9434 0.982591 16.258 1.51138L16.4476 1.82992C16.6893 2.2361 17.1429 2.46722 17.6135 2.42401L17.9827 2.39011C18.5954 2.33385 19.155 2.7404 19.2908 3.34054L19.3726 3.70206C19.477 4.16304 19.837 4.52303 20.2979 4.62737L20.6595 4.7092C21.2596 4.84504 21.6661 5.4046 21.6099 6.01735L21.576 6.38646C21.5328 6.85712 21.7639 7.31073 22.1701 7.55241L22.4886 7.74196C23.0174 8.0566 23.2311 8.71441 22.9883 9.27978L22.842 9.62035C22.6554 10.0546 22.7351 10.5574 23.0467 10.9128L23.2911 11.1915C23.6968 11.6542 23.6968 12.3458 23.2911 12.8085L23.0467 13.0872C22.7351 13.4426 22.6554 13.9454 22.842 14.3796L22.9883 14.7202C23.2311 15.2856 23.0174 15.9434 22.4886 16.258L22.1701 16.4476C21.7639 16.6893 21.5328 17.1429 21.576 17.6135L21.6099 17.9827C21.6661 18.5954 21.2596 19.155 20.6595 19.2908L20.2979 19.3726C19.837 19.477 19.477 19.837 19.3726 20.2979L19.2908 20.6595C19.155 21.2596 18.5954 21.6661 17.9827 21.6099L17.6135 21.576C17.1429 21.5328 16.6893 21.7639 16.4476 22.1701L16.258 22.4886C15.9434 23.0174 15.2856 23.2311 14.7202 22.9883L14.3796 22.842C13.9454 22.6554 13.4426 22.7351 13.0872 23.0467L12.8085 23.2911C12.3458 23.6968 11.6542 23.6968 11.1915 23.2911L10.9128 23.0467C10.5574 22.7351 10.0546 22.6554 9.62035 22.842L9.27977 22.9883C8.71441 23.2311 8.0566 23.0174 7.74196 22.4886L7.55241 22.1701C7.31073 21.7639 6.85712 21.5328 6.38646 21.576L6.01735 21.6099C5.4046 21.6661 4.84504 21.2596 4.7092 20.6595L4.62737 20.2979C4.52303 19.837 4.16304 19.477 3.70206 19.3726L3.34054 19.2908C2.7404 19.155 2.33385 18.5954 2.39011 17.9827L2.42401 17.6135C2.46722 17.1429 2.2361 16.6893 1.82992 16.4476L1.51138 16.258C0.98259 15.9434 0.768857 15.2856 1.01171 14.7202L1.15801 14.3796C1.34455 13.9454 1.26491 13.4426 0.953303 13.0872L0.708923 12.8085C0.303243 12.3458 0.303243 11.6542 0.708923 11.1915L0.953303 10.9128C1.26491 10.5574 1.34455 10.0546 1.15801 9.62035L1.01171 9.27977C0.768857 8.71441 0.982591 8.0566 1.51138 7.74196L1.82992 7.55241C2.2361 7.31073 2.46722 6.85712 2.42401 6.38646L2.39011 6.01735C2.33385 5.4046 2.7404 4.84504 3.34054 4.7092L3.70206 4.62737C4.16304 4.52303 4.52303 4.16304 4.62737 3.70206L4.7092 3.34054C4.84504 2.7404 5.4046 2.33385 6.01735 2.39011L6.38646 2.42401C6.85712 2.46722 7.31073 2.2361 7.55241 1.82992L7.74196 1.51138C8.0566 0.98259 8.71441 0.768857 9.27978 1.01171L9.62035 1.15801C10.0546 1.34455 10.5574 1.26491 10.9128 0.953303L11.1915 0.708923Z" fill="#9E5D37"/>
<path d="M6 11.2L10.4 15.6L18 8" stroke="#FFF5EB" stroke-width="1.6" stroke-linecap="round"/>
</svg>
