<svg width="301" height="130" viewBox="0 0 301 130" fill="none" xmlns="http://www.w3.org/2000/svg">
<g clip-path="url(#clip0_2013_1809)">
<path d="M30.8225 113.973C31.4777 115.525 31.921 116.579 32.6248 118.243C28.8218 116.851 25.7344 115.315 23.6579 112.317C22.2659 110.306 22.9483 107.738 25.328 106.941C27.2976 106.28 29.6248 105.996 31.6585 106.342C37.8801 107.4 42.5288 111.09 46.2034 116.077C47.1697 117.389 48.0232 118.785 48.8845 120.172C52.4619 125.927 58.2499 128.069 64.5357 125.507C66.303 124.785 67.7903 123.037 69.0483 121.472C71.3094 118.659 73.069 115.42 75.4623 112.737C78.8259 108.967 83.2354 106.82 88.306 106.299C89.6281 106.163 91.0571 106.257 92.3287 106.622C95.8614 107.637 96.8607 111.073 94.1076 113.468C91.862 115.424 89.0662 116.748 86.5134 118.352C86.3171 118.146 86.1207 117.938 85.9263 117.73C86.3793 116.631 86.8342 115.535 87.5847 113.719C85.5705 113.942 83.8906 113.859 82.3975 114.347C78.1279 115.739 74.7138 118.336 72.3418 122.227C68.1481 129.107 63.2253 131.155 55.3686 129.416C51.5656 128.575 48.8845 126.366 47.0083 123.026C44.5294 118.616 40.8431 115.686 35.93 114.459C34.4174 114.082 32.792 114.148 30.8244 113.977L30.8225 113.973Z" fill="black"/>
<path d="M102.343 69.2349C111.501 71.5777 115.928 78.8822 118.135 88.0046C119.437 93.3941 119.07 98.8302 117.524 104.142C115.403 111.439 110.995 116.941 103.86 119.707C99.2773 121.483 94.4129 122.531 89.6747 123.903C89.597 123.645 89.5211 123.384 89.4434 123.125C92.7816 121.786 96.1821 120.58 99.4504 119.085C115.778 111.617 121.179 91.3818 110.517 76.8233C108.242 73.7163 104.797 71.4688 102.341 69.2349H102.343Z" fill="black"/>
<path d="M17.8909 69.1238C6.63173 75.0751 2.84045 84.5922 3.25263 96.0691C3.83979 112.434 15.342 118.786 29.2647 123.065C16.3471 124.741 2.90267 113.985 0.499582 100.461C-2.07654 85.9571 5.55073 71.8691 17.8909 69.1257V69.1238Z" fill="black"/>
<path d="M84.5537 101.493C91.03 93.6737 90.8589 85.4476 86.1927 76.9395C81.861 69.044 78.2194 60.8956 77.0606 51.8452C76.9128 50.6922 76.8448 49.5276 76.9615 48.3086C78.4994 58.6811 83.2919 67.7083 88.2186 76.7179C91.1117 82.0082 92.8615 87.7009 90.3787 93.6387C89.1305 96.6231 87.1124 99.2847 85.4403 102.092C85.1448 101.892 84.8493 101.694 84.5537 101.493Z" fill="black"/>
<path d="M41.4033 49.2944C41.5647 55.2535 39.9899 60.9832 37.6762 66.5068C36.3833 69.5924 34.8921 72.6118 33.2628 75.534C28.5383 84.0128 27.2648 92.3984 33.9413 101.019C30.7119 99.1196 28.0541 94.224 27.5564 89.9544C26.9168 84.4581 28.7191 79.5761 31.3555 74.9351C35.1215 68.2994 38.6269 61.5626 40.3359 54.0462C40.6956 52.4636 41.0475 50.879 41.4053 49.2964L41.4033 49.2944Z" fill="black"/>
<path d="M24.0106 49.4479C30.0708 30.6821 30.2905 25.5045 26.299 0.624023C32.7306 14.8831 32.853 35.5174 24.0106 49.4479Z" fill="black"/>
<path d="M92.6967 0C88.4797 16.0575 88.2191 31.9809 94.3416 48.3553C86.0416 36.3418 85.8996 15.6337 92.6967 0Z" fill="black"/>
<path d="M74.3546 101.589C70.7714 106.895 66.3949 111.293 59.487 111.267C52.5343 111.242 47.977 106.912 44.2305 101.608C59.0631 111.569 60.6302 111.569 74.3546 101.589Z" fill="black"/>
</g>
<g clip-path="url(#clip1_2013_1809)">
<path d="M220.37 113.973C221.026 115.525 221.469 116.579 222.173 118.243C218.37 116.851 215.282 115.315 213.206 112.317C211.814 110.306 212.496 107.738 214.876 106.941C216.845 106.28 219.173 105.996 221.206 106.342C227.428 107.4 232.077 111.09 235.751 116.077C236.718 117.389 237.571 118.785 238.432 120.172C242.01 125.927 247.798 128.069 254.084 125.507C255.851 124.785 257.338 123.037 258.596 121.472C260.857 118.659 262.617 115.42 265.01 112.737C268.374 108.967 272.783 106.82 277.854 106.299C279.176 106.163 280.605 106.257 281.877 106.622C285.409 107.637 286.409 111.073 283.655 113.468C281.41 115.424 278.614 116.748 276.061 118.352C275.865 118.146 275.669 117.938 275.474 117.73C275.927 116.631 276.382 115.535 277.133 113.719C275.118 113.942 273.438 113.859 271.945 114.347C267.676 115.739 264.262 118.336 261.89 122.227C257.696 129.107 252.773 131.155 244.916 129.416C241.113 128.575 238.432 126.366 236.556 123.026C234.077 118.616 230.391 115.686 225.478 114.459C223.965 114.082 222.34 114.148 220.372 113.977L220.37 113.973Z" fill="black"/>
<path d="M284.114 69.2346C293.271 71.5774 297.698 78.882 299.905 88.0044C301.208 93.3938 300.84 98.8299 299.295 104.142C297.173 111.438 292.766 116.941 285.63 119.707C281.048 121.482 276.183 122.53 271.445 123.903C271.367 123.644 271.292 123.384 271.214 123.125C274.552 121.786 277.953 120.58 281.221 119.085C297.549 111.617 302.95 91.3815 292.288 76.823C290.013 73.7161 286.568 71.4686 284.112 69.2346H284.114Z" fill="black"/>
<path d="M215.216 69.1235C203.957 75.0749 200.166 84.5919 200.578 96.0688C201.165 112.434 212.667 118.785 226.59 123.065C213.672 124.741 200.228 113.985 197.825 100.461C195.249 85.9568 202.876 71.8688 215.216 69.1255V69.1235Z" fill="black"/>
<path d="M266.324 101.493C272.801 93.6737 272.629 85.4476 267.963 76.9395C263.631 69.044 259.99 60.8956 258.831 51.8452C258.683 50.6922 258.615 49.5276 258.732 48.3086C260.27 58.6811 265.062 67.7083 269.989 76.7179C272.882 82.0082 274.632 87.7009 272.149 93.6387C270.901 96.6231 268.883 99.2847 267.211 102.092C266.915 101.892 266.62 101.694 266.324 101.493Z" fill="black"/>
<path d="M238.728 49.2942C238.89 55.2533 237.315 60.983 235.001 66.5066C233.708 69.5921 232.217 72.6115 230.588 75.5337C225.863 84.0126 224.59 92.3981 231.266 101.019C228.037 99.1194 225.379 94.2237 224.881 89.9542C224.242 84.4578 226.044 79.5758 228.681 74.9349C232.447 68.2992 235.952 61.5624 237.661 54.0459C238.021 52.4633 238.373 50.8788 238.73 49.2961L238.728 49.2942Z" fill="black"/>
<path d="M223.279 49.4479C229.34 30.6821 229.559 25.5045 225.568 0.624023C231.999 14.8831 232.122 35.5174 223.279 49.4479Z" fill="black"/>
<path d="M272.523 0C268.306 16.0575 268.045 31.9809 274.167 48.3553C265.868 36.3418 265.726 15.6337 272.523 0Z" fill="black"/>
<path d="M263.902 101.589C260.319 106.894 255.943 111.292 249.035 111.267C242.082 111.242 237.525 106.912 233.778 101.608C248.611 111.568 250.178 111.568 263.902 101.589Z" fill="black"/>
</g>
<g clip-path="url(#clip2_2013_1809)">
<path d="M171.403 67.7371C171.355 67.7371 171.308 67.7331 171.259 67.7331C150.592 67.1881 133.72 66.4528 133.491 66.4582C132.335 66.497 131.368 65.9587 131.326 64.9208C131.284 63.895 132.223 63.3138 133.391 63.2857C133.621 63.2803 151.529 62.2049 171.541 63.2468C172.708 63.3071 173.588 64.5981 173.51 65.7632C173.435 66.8801 172.506 67.7358 171.402 67.7358L171.403 67.7371Z" fill="black"/>
<path d="M162.548 74.8455C161.621 74.8455 160.741 74.362 160.346 73.659C159.77 72.6331 160.703 71.0837 161.76 70.5253C164.217 69.2249 166.996 67.0487 169.029 65.6801C167.071 63.2977 165.079 61.4737 161.885 58.6908C160.989 57.9101 160.915 56.5736 161.719 55.7031C162.522 54.834 164.172 54.7617 165.068 55.5424C168.867 58.8542 170.794 60.8951 173.894 64.6556C174.644 65.5662 174.371 67.1867 173.398 67.8683C173.151 68.0411 168.128 72.3827 164.118 74.5053C163.788 74.6808 163.17 74.8482 162.546 74.8482L162.548 74.8455Z" fill="black"/>
</g>
<defs>
<clipPath id="clip0_2013_1809">
<rect width="118.928" height="130" fill="white"/>
</clipPath>
<clipPath id="clip1_2013_1809">
<rect width="103.374" height="130" fill="white" transform="translate(197.325)"/>
</clipPath>
<clipPath id="clip2_2013_1809">
<rect width="43" height="19.8454" fill="white" transform="translate(131.325 55)"/>
</clipPath>
</defs>
</svg>
