<svg width="300" height="130" viewBox="0 0 300 130" fill="none" xmlns="http://www.w3.org/2000/svg">
<g clip-path="url(#clip0_2013_1872)">
<path d="M219.963 114.031C220.616 115.577 221.058 116.627 221.759 118.285C217.97 116.898 214.893 115.368 212.824 112.381C211.437 110.377 212.117 107.818 214.488 107.024C216.451 106.365 218.77 106.082 220.796 106.427C226.996 107.481 231.628 111.158 235.289 116.127C236.252 117.435 237.102 118.826 237.961 120.207C241.525 125.942 247.293 128.076 253.556 125.523C255.317 124.804 256.799 123.063 258.052 121.503C260.305 118.7 262.059 115.472 264.443 112.799C267.795 109.043 272.189 106.904 277.241 106.385C278.559 106.249 279.982 106.342 281.249 106.706C284.77 107.717 285.765 111.141 283.022 113.527C280.785 115.476 277.999 116.796 275.455 118.394C275.259 118.189 275.064 117.981 274.87 117.774C275.321 116.679 275.775 115.587 276.522 113.777C274.515 114 272.842 113.917 271.354 114.403C267.099 115.79 263.698 118.378 261.334 122.255C257.155 129.111 252.25 131.151 244.422 129.419C240.632 128.58 237.961 126.379 236.091 123.051C233.621 118.657 229.948 115.738 225.053 114.515C223.545 114.14 221.926 114.205 219.965 114.035L219.963 114.031Z" fill="black"/>
<path d="M283.479 69.452C292.604 71.7865 297.015 79.0649 299.214 88.1546C300.512 93.5248 300.145 98.9415 298.605 104.234C296.492 111.505 292.1 116.987 284.99 119.744C280.424 121.513 275.577 122.557 270.856 123.925C270.778 123.667 270.702 123.408 270.625 123.15C273.953 121.815 277.34 120.614 280.596 119.124C296.866 111.683 302.247 91.5197 291.623 77.0133C289.357 73.9175 285.924 71.678 283.477 69.452H283.479Z" fill="black"/>
<path d="M214.828 69.3414C203.609 75.2715 199.831 84.7545 200.242 96.1904C200.827 112.497 212.288 118.826 226.161 123.09C213.29 124.76 199.893 114.042 197.499 100.567C194.932 86.1145 202.532 72.0769 214.828 69.3434V69.3414Z" fill="black"/>
<path d="M265.753 101.596C272.206 93.8038 272.036 85.6071 267.386 77.1295C263.07 69.2622 259.441 61.143 258.287 52.1249C258.139 50.9761 258.072 49.8156 258.188 48.601C259.72 58.9364 264.496 67.9312 269.405 76.9087C272.287 82.18 274.031 87.8524 271.557 93.7689C270.313 96.7426 268.302 99.3948 266.636 102.192C266.342 101.993 266.047 101.795 265.753 101.596Z" fill="black"/>
<path d="M238.255 49.5831C238.415 55.5209 236.846 61.2301 234.541 66.734C233.252 69.8085 231.767 72.8171 230.143 75.7288C225.436 84.1773 224.167 92.5329 230.819 101.123C227.601 99.2301 224.953 94.352 224.457 90.0977C223.82 84.621 225.616 79.7564 228.243 75.1321C231.995 68.5202 235.488 61.8074 237.191 54.3179C237.549 52.7409 237.9 51.162 238.257 49.5851L238.255 49.5831Z" fill="black"/>
<path d="M222.861 49.7362C228.9 31.0374 229.119 25.8784 225.142 1.08691C231.55 15.295 231.672 35.8555 222.861 49.7362Z" fill="black"/>
<path d="M271.929 0.464966C267.727 16.4651 267.468 32.3315 273.568 48.6473C265.298 36.6768 265.157 16.0427 271.929 0.464966Z" fill="black"/>
<path d="M263.339 101.691C259.768 106.977 255.407 111.36 248.524 111.334C241.596 111.309 237.055 106.995 233.322 101.71C248.102 111.635 249.663 111.635 263.339 101.691Z" fill="black"/>
<path d="M248.892 0.00012207H247.767V4.54888H248.892V0.00012207Z" fill="#B7B7B7"/>
<path d="M248.892 100.906H247.767V91.2698H248.892V100.906ZM248.892 81.6337H247.767V71.9976H248.892V81.6337ZM248.892 62.3634H247.767V52.7274H248.892V62.3634ZM248.892 43.0913H247.767V33.4552H248.892V43.0913ZM248.892 23.821H247.767V14.1849H248.892V23.821Z" fill="#B7B7B7"/>
</g>
<g clip-path="url(#clip1_2013_1872)">
<path d="M171.078 67.7373C171.03 67.7373 170.983 67.7332 170.934 67.7332C150.267 67.1882 133.395 66.453 133.166 66.4583C132.01 66.4972 131.043 65.9588 131 64.9209C130.959 63.8951 131.898 63.3139 133.065 63.2858C133.296 63.2804 151.203 62.2051 171.216 63.247C172.383 63.3072 173.262 64.5982 173.185 65.7633C173.11 66.8802 172.18 67.7359 171.077 67.7359L171.078 67.7373Z" fill="black"/>
<path d="M162.222 74.8456C161.296 74.8456 160.416 74.3622 160.021 73.6591C159.445 72.6333 160.378 71.0838 161.435 70.5254C163.892 69.225 166.671 67.0488 168.704 65.6802C166.746 63.2978 164.753 61.4738 161.559 58.691C160.663 57.9102 160.59 56.5737 161.393 55.7032C162.197 54.8341 163.847 54.7618 164.743 55.5425C168.542 58.8543 170.469 60.8953 173.569 64.6557C174.319 65.5664 174.046 67.1868 173.072 67.8684C172.826 68.0412 167.803 72.3828 163.793 74.5054C163.462 74.6809 162.845 74.8483 162.221 74.8483L162.222 74.8456Z" fill="black"/>
</g>
<path d="M49.3336 103.156C49.2954 103.03 48.378 99.9932 47.8887 94.722L49.1998 94.5997C49.6738 99.7218 50.5836 102.74 50.5931 102.77L49.3336 103.156ZM48.9399 86.2589L47.623 86.2226C47.6995 83.4303 47.9327 80.5806 48.3207 77.7538L49.6241 77.9316C49.2438 80.7105 49.0125 83.5124 48.938 86.257L48.9399 86.2589ZM51.1856 69.7227L49.907 69.4112C50.3944 67.4082 50.9678 65.388 51.6061 63.4022C51.8336 62.6969 52.0572 61.984 52.2693 61.2845L53.5288 61.6687C53.3129 62.3758 53.0892 63.0945 52.858 63.8074C52.2273 65.7626 51.6654 67.7522 51.1837 69.7246L51.1856 69.7227ZM55.723 53.4827L54.4405 53.1884C55.0808 50.4075 55.6026 47.64 55.9924 44.9585L57.2959 45.1478C56.9003 47.8637 56.3728 50.6675 55.7249 53.4827H55.723ZM58.1292 36.6981L56.8143 36.6312C56.8831 35.2704 56.9175 33.9 56.9175 32.5583C56.9175 31.1268 56.8774 29.6857 56.8009 28.2752L58.1159 28.2025C58.1961 29.636 58.2363 31.1019 58.2363 32.5583C58.2363 33.921 58.2019 35.3143 58.1311 36.6962L58.1292 36.6981ZM55.872 19.9784C55.4095 17.2491 54.7807 14.5103 54.0067 11.8422L55.27 11.4752C56.0593 14.193 56.6977 16.9796 57.1679 19.7586L55.8701 19.9784H55.872ZM51.2372 3.96395C50.7671 2.83057 50.2625 1.68573 49.7331 0.559999L50.9238 0C51.4609 1.14293 51.975 2.30689 52.4528 3.45938L51.2372 3.96395Z" fill="#B7B7B7"/>
<path d="M22.6546 114.246C23.2987 115.771 23.7345 116.807 24.4263 118.443C20.6879 117.074 17.6528 115.564 15.6116 112.617C14.2431 110.641 14.914 108.116 17.2534 107.332C19.1895 106.683 21.4773 106.404 23.4764 106.744C29.5925 107.784 34.1623 111.411 37.7746 116.314C38.7245 117.604 39.5635 118.976 40.4102 120.339C43.9269 125.996 49.6167 128.102 55.7958 125.583C57.5332 124.874 58.9953 123.156 60.2319 121.617C62.4547 118.852 64.1843 115.667 66.5371 113.03C69.8436 109.324 74.1783 107.214 79.1629 106.702C80.4625 106.568 81.8673 106.66 83.1173 107.019C86.59 108.017 87.5724 111.394 84.8661 113.749C82.6586 115.671 79.9102 116.973 77.4007 118.55C77.2077 118.347 77.0146 118.143 76.8235 117.938C77.2688 116.858 77.7161 115.78 78.4538 113.995C76.4737 114.215 74.8224 114.133 73.3546 114.612C69.1574 115.981 65.8013 118.534 63.4695 122.359C59.3469 129.123 54.5076 131.135 46.7842 129.427C43.0458 128.599 40.4102 126.428 38.5658 123.144C36.129 118.81 32.5052 115.929 27.6755 114.723C26.1885 114.353 24.5907 114.418 22.6565 114.249L22.6546 114.246Z" fill="black"/>
<path d="M85.3169 70.2655C94.319 72.5686 98.6709 79.7492 100.84 88.7168C102.121 94.0148 101.759 99.3587 100.24 104.58C98.1549 111.753 93.822 117.162 86.8077 119.882C82.3029 121.627 77.5209 122.657 72.8632 124.006C72.7867 123.752 72.7122 123.496 72.6357 123.242C75.9174 121.925 79.2602 120.74 82.473 119.27C98.5237 111.929 103.833 92.0366 93.3519 77.7251C91.1157 74.671 87.729 72.4615 85.315 70.2655H85.3169Z" fill="black"/>
<path d="M17.5872 70.1566C6.51909 76.007 2.79214 85.3626 3.19733 96.6448C3.77453 112.732 15.0815 118.976 28.7681 123.183C16.0697 124.83 2.8533 114.257 0.490986 100.962C-2.04143 86.7043 5.45643 72.8553 17.5872 70.1585V70.1566Z" fill="black"/>
<path d="M67.1271 100.754C72.8036 96.6982 74.9384 84.0457 70.3514 75.682C67.3221 68.079 66.8557 66.4392 66.4716 62.7638C66.3263 61.6304 66.1543 54.5244 67.087 51.8926C66.8098 63.6067 67.4979 66.6074 72.341 75.4641C74.0784 78.6406 74.948 82.6141 74.8734 86.0525C74.7817 90.2324 74.409 90.9797 72.6373 95.0163C72.3143 95.7502 72.2187 95.8209 71.695 96.7689C71.3567 97.3824 70.0265 99.0242 69.0193 99.7161C68.6982 99.9359 67.2303 100.823 67.1271 100.752V100.754Z" fill="black"/>
<path d="M44.8969 49.0277C42.8614 55.4801 38.3623 63.8361 36.9594 66.877C35.6884 69.9101 33.9167 73.5855 32.317 76.4581C27.6726 84.7931 26.4207 93.0364 32.984 101.511C29.8094 99.6436 27.1967 94.831 26.7074 90.6339C26.0786 85.2308 27.8503 80.4316 30.442 75.8694C33.8937 69.3004 34.4193 68.4518 39.4708 59.4804C40.9195 56.4013 42.7964 53.1962 44.9007 49.0277H44.8969Z" fill="black"/>
<path d="M35.0215 49.7425C40.9789 31.295 41.1948 26.2053 37.271 1.74695C43.5935 15.7641 43.7139 36.0483 35.0215 49.7425Z" fill="black"/>
<path d="M73.6277 2.20569C77.7732 17.9908 78.0293 33.644 72.0107 49.7406C80.1699 37.9309 80.3094 17.5741 73.6277 2.20569Z" fill="black"/>
<path d="M65.447 102.071C61.9246 107.287 57.6223 111.61 50.8316 111.585C43.997 111.56 39.517 107.304 35.834 102.09C50.415 111.881 51.9554 111.881 65.447 102.071Z" fill="black"/>
<defs>
<clipPath id="clip0_2013_1872">
<rect width="103.004" height="130" fill="white" transform="translate(197 0.00012207)"/>
</clipPath>
<clipPath id="clip1_2013_1872">
<rect width="43" height="19.8454" fill="white" transform="translate(131 55.0001)"/>
</clipPath>
</defs>
</svg>
