<svg width="264" height="130" viewBox="0 0 264 130" fill="none" xmlns="http://www.w3.org/2000/svg">
<g clip-path="url(#clip0_2013_1917)">
<path d="M37.0408 129.774C37.5137 128.084 38.1316 126.418 38.4315 124.698C39.2603 119.951 37.9372 118.024 33.2428 117.184C27.8499 116.218 21.8011 114.922 16.9914 112.241C9.1252 108.164 3.09784 100.308 1.35785 94.7651C-1.30156 87.9403 0.0841689 81.6427 4.32704 75.6763C5.13607 74.5378 5.983 73.3992 6.96998 72.4188C16.0539 63.4091 20.969 49.5007 27.5269 38.6224C35.4557 19.1893 46.8794 11.9904 59.0099 0.80568C59.8172 0.159774 60.5521 -0.126928 61.1618 0.0526728C60.4088 0.896304 59.6871 1.5142 58.9868 2.37595C46.3224 16.6913 38.6391 20.0082 25.8166 47.647C21.2771 55.3979 17.8976 65.8246 11.6248 72.2721C10.0018 73.9396 8.4727 75.7225 7.08697 77.591C3.36148 82.6149 2.78807 90.0032 5.24812 95.7884C11.203 106.622 16.9486 109.84 29.2306 113.294C31.025 113.798 32.849 114.2 34.6566 114.661C40.0594 116.039 42.1257 119.799 40.1748 125.049C39.5272 126.793 38.387 128.356 37.4725 130.002C37.3275 129.926 37.1825 129.852 37.0375 129.776L37.0408 129.774Z" fill="black"/>
<path d="M55.0285 112.699C56.6779 109.914 56.5592 109.079 54.119 108.018C48.9583 105.775 43.5307 104.568 37.6731 104.627C39.0044 105.517 40.3341 106.408 42.0511 107.557C37.6352 107.964 33.8174 107.637 30.3902 105.283C29.8909 104.94 29.4427 104.457 29.1148 103.945C27.5973 101.574 28.0619 100.16 30.7741 99.5124C38.1806 97.7444 45.4602 98.415 52.4729 101.27C54.8851 102.253 57.2661 103.571 59.2615 105.22C60.3902 106.153 61.4052 108.193 61.1695 109.501C60.9751 110.58 58.9171 111.399 57.589 112.167C56.9679 112.526 56.1176 112.49 55.0285 112.699Z" fill="black"/>
<path d="M81.9192 88.9141C84.0349 95.846 83.7037 102.523 79.3784 108.55C74.3776 115.518 67.2084 117.108 59.0703 115.973C65.5722 114.548 72.0708 113.086 76.4801 107.509C80.7872 102.06 81.705 95.5906 81.9192 88.9141Z" fill="black"/>
<path d="M51.068 28.606C43.7324 35.4868 42.9019 46.0784 36.4824 53.5096C36.6653 53.091 36.84 52.6692 37.0311 52.254C38.5553 48.947 40.1964 45.6878 41.5805 42.3249C43.7489 37.0555 46.5747 32.2787 51.0697 28.606H51.068Z" fill="black"/>
</g>
<g clip-path="url(#clip1_2013_1917)">
<path d="M217.336 129.813C217.811 128.113 218.433 126.438 218.735 124.706C219.514 120.24 218.854 117.703 214.885 116.709C214.047 116.499 213.225 116.224 212.416 115.92C204.156 112.809 202.983 112.075 198.439 109.541C190.699 104.324 185.61 100.002 180.833 91.1431C178.319 84.6917 178.158 78.9481 181.81 73.2509C182.329 72.4405 182.944 71.698 183.624 71.0166C184.198 70.4428 184.861 69.806 185.41 69.2603C194.073 60.6689 212.036 42.7966 217.948 34.4318C218.871 33.127 223.574 26.4738 225.395 23.3532C233.289 9.81369 231.445 13.3792 239.264 0.58728C239.409 0.410326 239.375 0.402057 239.556 0.163913C239.743 -0.0791917 240.163 -0.0973833 240.011 0.43844C239.973 0.569088 239.785 0.805578 239.68 0.990801C230.004 18.3836 230.674 18.8185 220.176 34.9461C215.62 42.7255 196.38 62.6402 190.085 69.1115C188.456 70.7851 186.685 72.2437 185.294 74.1191C182.488 77.9046 181.352 81.9563 182.007 86.1966C182.326 88.2705 183.097 90.25 184.19 92.0411C190.479 102.328 193.73 104.32 203.841 109.803C204.663 110.247 205.513 110.641 206.382 110.988C208.809 111.959 213.399 114.238 214.948 114.633C220.371 116.016 222.445 119.79 220.487 125.059C219.84 126.8 218.706 128.361 217.789 130.002L217.336 129.813Z" fill="black"/>
<path d="M235.332 112.907C236.987 110.112 236.868 109.274 234.419 108.208C229.239 105.958 223.792 104.745 217.913 104.805C219.249 105.698 220.584 106.593 222.307 107.745C217.875 108.154 214.043 107.826 210.603 105.463C210.102 105.119 209.652 104.635 209.323 104.12C207.8 101.741 208.266 100.322 210.988 99.6717C218.422 97.8972 225.729 98.5703 232.767 101.436C235.188 102.422 237.578 103.745 239.581 105.4C240.713 106.336 241.732 108.384 241.496 109.697C241.3 110.78 239.235 111.602 237.902 112.373C237.278 112.733 236.425 112.697 235.332 112.907Z" fill="black"/>
<path d="M262.322 89.0361C264.445 95.9936 264.113 102.695 259.771 108.744C254.752 115.738 247.557 117.334 239.389 116.194C245.914 114.764 252.437 113.297 256.862 107.699C261.185 102.23 262.107 95.7372 262.322 89.0361Z" fill="black"/>
<path d="M232.999 32.6472C231.974 35.3842 224.957 50.8106 217.791 57.8326C217.975 57.4125 218.428 56.9164 218.62 56.4996C220.455 53.5493 219.544 55.2196 224.003 48.1464C227.399 42.942 230.262 37.7227 232.999 32.6472Z" fill="black"/>
</g>
<g clip-path="url(#clip2_2013_1917)">
<path d="M153.078 67.7371C153.03 67.7371 152.983 67.7331 152.934 67.7331C132.267 67.1881 115.395 66.4528 115.166 66.4582C114.01 66.497 113.043 65.9587 113 64.9208C112.959 63.895 113.898 63.3138 115.065 63.2857C115.296 63.2803 133.203 62.2049 153.216 63.2468C154.383 63.3071 155.262 64.5981 155.185 65.7632C155.11 66.8801 154.18 67.7358 153.077 67.7358L153.078 67.7371Z" fill="black"/>
<path d="M144.222 74.8455C143.296 74.8455 142.416 74.362 142.021 73.659C141.445 72.6331 142.378 71.0837 143.435 70.5253C145.892 69.2249 148.671 67.0487 150.704 65.6801C148.746 63.2977 146.753 61.4737 143.559 58.6908C142.663 57.9101 142.59 56.5736 143.393 55.7031C144.197 54.834 145.847 54.7617 146.743 55.5424C150.542 58.8542 152.469 60.8951 155.569 64.6556C156.319 65.5662 156.046 67.1867 155.072 67.8683C154.826 68.0411 149.803 72.3827 145.793 74.5053C145.462 74.6808 144.845 74.8482 144.221 74.8482L144.222 74.8455Z" fill="black"/>
</g>
<defs>
<clipPath id="clip0_2013_1917">
<rect width="83.1867" height="130" fill="white"/>
</clipPath>
<clipPath id="clip1_2013_1917">
<rect width="84.5939" height="130" fill="white" transform="translate(179)"/>
</clipPath>
<clipPath id="clip2_2013_1917">
<rect width="43" height="19.8454" fill="white" transform="translate(113 55)"/>
</clipPath>
</defs>
</svg>
