<svg width="63" height="63" viewBox="0 0 63 63" fill="none" xmlns="http://www.w3.org/2000/svg">
<path d="M31.4443 60.9881C15.141 60.9881 1.86906 47.7161 1.86906 31.4129C1.86906 15.1096 15.141 1.83765 31.4443 1.83765C47.7476 1.83765 61.0195 15.1096 61.0195 31.4129C61.0195 47.7161 47.7476 60.9881 31.4443 60.9881ZM53.6532 9.20397C50.7632 6.31399 47.402 4.05226 43.6639 2.46591C39.7844 0.83244 35.6693 0 31.4286 0C27.1878 0 23.0727 0.83244 19.1933 2.46591C15.4551 4.05226 12.094 6.31399 9.20397 9.20397C6.31398 12.094 4.05226 15.4551 2.46591 19.1933C0.83244 23.0728 0 27.1878 0 31.4286C0 35.6693 0.83244 39.7844 2.46591 43.6639C4.05226 47.402 6.31398 50.7632 9.20397 53.6532C12.094 56.5432 15.4551 58.8049 19.1933 60.3912C23.0727 62.0247 27.1878 62.8571 31.4286 62.8571C35.6693 62.8571 39.7844 62.0247 43.6639 60.3912C47.402 58.8049 50.7632 56.5432 53.6532 53.6532C56.5432 50.7632 58.8049 47.402 60.3912 43.6639C62.0247 39.7844 62.8571 35.6693 62.8571 31.4286C62.8571 27.1878 62.0247 23.0728 60.3912 19.1933C58.8049 15.4551 56.5432 12.094 53.6532 9.20397Z" fill="white"/>
<path d="M14.2881 13.0844C13.9269 12.7232 13.3457 12.7232 12.9845 13.0844C8.11549 17.9848 5.42969 24.503 5.42969 31.4138C5.42969 38.3246 8.11549 44.8271 12.9845 49.7432C13.1573 49.9317 13.4086 50.0102 13.6442 50.0102C13.8798 50.0102 14.1153 49.916 14.2881 49.7432C14.6494 49.382 14.6494 48.8008 14.2881 48.4396C9.76466 43.8847 7.26734 37.8377 7.26734 31.4138C7.26734 24.9899 9.76466 18.9429 14.2881 14.388C14.6494 14.0268 14.6494 13.4457 14.2881 13.0844Z" fill="white"/>
<path d="M48.5834 13.0844C48.2222 13.4457 48.2222 14.0268 48.5834 14.388C53.1069 18.9429 55.6042 24.9899 55.6042 31.4138C55.6042 37.8377 53.1069 43.8847 48.5834 48.4396C48.2222 48.8008 48.2222 49.382 48.5834 49.7432C48.7562 49.916 48.9918 50.0102 49.2274 50.0102C49.463 50.0102 49.6986 49.916 49.8871 49.7432C54.7561 44.8428 57.4419 38.3246 57.4419 31.4138C57.4419 24.503 54.7561 18.0005 49.8871 13.0844C49.5258 12.7232 48.9447 12.7232 48.5834 13.0844Z" fill="white"/>
<path d="M41.6937 53.3085C38.4739 54.8163 35.0342 55.586 31.4374 55.586C27.8406 55.586 24.4009 54.8163 21.1811 53.3085C20.7256 53.0886 20.1759 53.2928 19.956 53.7483C19.7361 54.2038 19.9403 54.7535 20.3958 54.9734C23.8669 56.5912 27.5736 57.4236 31.4217 57.4236C35.2697 57.4236 38.9922 56.6069 42.4476 54.9734C42.9031 54.7535 43.1073 54.2038 42.8874 53.7483C42.6675 53.2928 42.1178 53.0886 41.6623 53.3085H41.6937Z" fill="white"/>
<path d="M21.1965 9.51938C24.4164 8.01157 27.8561 7.24195 31.4528 7.24195C35.0496 7.24195 38.4893 8.01157 41.7091 9.51938C41.8348 9.58221 41.9604 9.61362 42.1018 9.61362C42.4473 9.61362 42.7772 9.42514 42.9342 9.0796C43.1541 8.62411 42.9499 8.07439 42.4945 7.8545C39.0233 6.23674 35.3166 5.4043 31.4685 5.4043C27.6205 5.4043 23.898 6.22103 20.4426 7.8545C19.9871 8.07439 19.783 8.62411 20.0029 9.0796C20.2227 9.53509 20.7725 9.73927 21.228 9.51938H21.1965Z" fill="white"/>
<path d="M45.4205 31.6491L23.8399 44.1043C23.7142 44.1671 23.6043 44.1357 23.5571 44.1043C23.51 44.0728 23.4158 44.01 23.4158 43.8687V18.9426C23.4158 18.8012 23.51 18.7227 23.5571 18.707C23.5885 18.6913 23.6357 18.6755 23.6985 18.6755C23.7613 18.6755 23.7927 18.6755 23.8399 18.707L45.4205 31.1622C45.5461 31.225 45.5618 31.3506 45.5618 31.3978C45.5618 31.4449 45.5461 31.5705 45.4205 31.6333V31.6491ZM46.3472 29.5758L24.7665 17.1206C24.1069 16.7437 23.3058 16.7437 22.6462 17.1206C21.9865 17.4976 21.5781 18.1886 21.5781 18.9583V43.8844C21.5781 44.654 21.9708 45.3451 22.6462 45.722C22.976 45.9105 23.3372 46.0047 23.7142 46.0047C24.0754 46.0047 24.4367 45.9105 24.7822 45.722L46.3629 33.2668C47.0225 32.8899 47.4309 32.1988 47.4309 31.4292C47.4309 30.6596 47.0382 29.9685 46.3629 29.5915L46.3472 29.5758Z" fill="white"/>
</svg>
