<svg width="101" height="100" viewBox="0 0 101 100" fill="none" xmlns="http://www.w3.org/2000/svg">
<g clip-path="url(#clip0_8389_797)">
<path d="M60.2382 70.3093C47.8503 57.8083 38.2687 48.2295 31.5245 41.8785C30.2939 40.7215 27.3179 37.935 24.735 33.3917C23.0575 30.4412 19.8778 24.8455 20.4916 18.6813C21.363 9.96534 29.8752 -0.408361 41.4258 0.0103211C49.839 0.315846 57.4743 6.25661 60.2693 14.8622C63.0671 6.25944 70.7024 0.315846 79.1157 0.0103211C90.6662 -0.408361 99.1813 9.96534 100.05 18.6813C100.664 24.8455 97.4839 30.4412 95.8064 33.3917C93.2235 37.935 90.2475 40.7215 89.0169 41.8785C82.2727 48.2295 72.6911 57.8083 60.3032 70.3093H60.241H60.2382Z" fill="#1F9DDA"/>
<path d="M91.5616 19.958C90.4979 19.958 89.4908 19.3243 89.0693 18.2776C88.6167 17.1574 86.8118 13.3638 82.5741 11.5335C79.4905 10.2039 76.6022 10.5292 75.1566 10.8432C73.7054 11.1572 72.2739 10.2378 71.9599 8.78657C71.6459 7.33532 72.5653 5.90388 74.0166 5.58987C76.093 5.14007 80.2431 4.67047 84.7043 6.59697C90.6535 9.16564 93.2222 14.2096 94.0511 16.2606C94.6084 17.6355 93.9436 19.2027 92.5659 19.76C92.2349 19.893 91.8954 19.9552 91.5588 19.9552L91.5616 19.958Z" fill="white"/>
<path d="M0.158135 72.2824L6.74107 90.0227C7.05508 90.8685 7.7906 91.4881 8.67889 91.6493L52.997 99.774C56.3266 100.385 59.7638 99.7429 62.6493 97.9748L98.656 75.9063C100.413 74.8285 100.401 72.2768 98.6362 71.2103C97.1425 70.3078 95.2443 69.4591 92.9641 69.0376C86.6839 67.8749 81.589 70.6841 79.1505 72.4125C78.05 73.1933 76.7911 73.711 75.4615 73.9289C72.1998 74.4607 68.938 74.9954 65.6763 75.5272C64.737 75.68 64.1232 76.5937 64.3382 77.5188C65.416 82.1978 63.7611 86.7468 60.4342 88.8402C58.8444 89.8388 57.1442 90.1104 55.7354 90.1019C54.4567 90.0934 53.1893 89.836 51.9899 89.389C46.4367 87.3267 40.8835 85.2644 35.3303 83.2021C34.1534 82.7636 33.5226 81.4312 34.0233 80.2798C34.4986 79.1907 35.749 78.6928 36.8353 79.1369L53.3619 85.9066C56.7623 87.2984 60.3861 84.328 59.6082 80.7353C59.6025 80.7013 59.594 80.6702 59.5856 80.6363C58.5615 76.1411 54.1851 72.5483 48.5075 71.7251C47.605 71.595 46.7733 71.1622 46.1566 70.4917C41.9217 65.8919 33.1067 57.7643 23.6581 59.1364C20.7924 59.5522 17.9436 60.8337 12.9081 63.0969C8.14422 65.2384 4.212 67.411 1.24162 69.1961C0.186424 69.8297 -0.269034 71.1254 0.160964 72.2796L0.158135 72.2824Z" fill="#0F172A"/>
</g>
<defs>
<clipPath id="clip0_8389_797">
<rect width="100.116" height="100" fill="white"/>
</clipPath>
</defs>
</svg>
