<svg width="80" height="39" viewBox="0 0 80 39" fill="none" xmlns="http://www.w3.org/2000/svg">
<g clip-path="url(#clip0_58_500)">
<path d="M20.9885 6.92236H29.0755V8.42477H25.8957V16.8706H24.1472V8.42477H20.9814V6.92236H20.9885ZM28.73 9.66742H30.2248V11.0575H30.253C30.3023 10.8609 30.394 10.6714 30.5279 10.4888C30.6619 10.3063 30.8241 10.1308 31.0144 9.98334C31.2048 9.82889 31.4163 9.70954 31.649 9.61125C31.8817 9.51998 32.1214 9.47084 32.3611 9.47084C32.5444 9.47084 32.6784 9.47786 32.7489 9.48488C32.8194 9.4919 32.8899 9.50594 32.9674 9.51296V11.0435C32.8546 11.0224 32.7418 11.0084 32.622 10.9943C32.5021 10.9803 32.3893 10.9732 32.2765 10.9732C32.0086 10.9732 31.7547 11.0294 31.515 11.1347C31.2753 11.24 31.0708 11.4015 30.8946 11.6051C30.7183 11.8157 30.5773 12.0685 30.4715 12.3774C30.3658 12.6863 30.3164 13.0373 30.3164 13.4375V16.8635H28.723V9.66742H28.73ZM40.293 16.8706H38.7278V15.8666H38.6996C38.5022 16.2317 38.2131 16.5195 37.8253 16.7372C37.4375 16.9548 37.0427 17.0671 36.6408 17.0671C35.689 17.0671 34.998 16.8354 34.575 16.3651C34.1519 15.8947 33.9404 15.1856 33.9404 14.2378V9.66742H35.5339V14.0834C35.5339 14.7152 35.6537 15.1645 35.9005 15.4243C36.1402 15.6841 36.4857 15.8175 36.9228 15.8175C37.2613 15.8175 37.5362 15.7683 37.7618 15.663C37.9875 15.5577 38.1708 15.4243 38.3047 15.2488C38.4458 15.0803 38.5445 14.8697 38.6079 14.631C38.6714 14.3923 38.6996 14.1325 38.6996 13.8517V9.67444H40.293V16.8706ZM43.0075 14.5608C43.0568 15.0241 43.2331 15.3471 43.5363 15.5366C43.8465 15.7192 44.2131 15.8175 44.6432 15.8175C44.7913 15.8175 44.9605 15.8034 45.1509 15.7824C45.3412 15.7613 45.5245 15.7122 45.6867 15.649C45.8559 15.5858 45.9899 15.4875 46.1027 15.3611C46.2085 15.2348 46.2578 15.0733 46.2508 14.8697C46.2437 14.6661 46.1661 14.4976 46.0251 14.3712C45.8841 14.2378 45.7079 14.1395 45.4893 14.0553C45.2707 13.9781 45.024 13.9079 44.7419 13.8517C44.4599 13.7955 44.1779 13.7323 43.8888 13.6692C43.5927 13.606 43.3036 13.5217 43.0286 13.4305C42.7537 13.3392 42.5069 13.2128 42.2883 13.0513C42.0698 12.8969 41.8935 12.6933 41.7666 12.4476C41.6326 12.2019 41.5692 11.9 41.5692 11.5349C41.5692 11.1417 41.6679 10.8188 41.8582 10.552C42.0486 10.2852 42.2954 10.0746 42.5844 9.91314C42.8806 9.75166 43.2049 9.63933 43.5645 9.56913C43.9241 9.50594 44.2695 9.47084 44.5939 9.47084C44.9675 9.47084 45.3271 9.51296 45.6656 9.59019C46.004 9.66742 46.3142 9.79379 46.5892 9.97632C46.8642 10.1518 47.0898 10.3835 47.2731 10.6643C47.4564 10.9452 47.5692 11.2892 47.6186 11.6893H45.9546C45.8771 11.3102 45.7079 11.0505 45.4329 10.9241C45.1579 10.7907 44.8406 10.7275 44.4881 10.7275C44.3753 10.7275 44.2413 10.7345 44.0862 10.7556C43.9311 10.7767 43.7901 10.8118 43.6491 10.8609C43.5151 10.9101 43.4023 10.9873 43.3036 11.0856C43.212 11.1839 43.1626 11.3102 43.1626 11.4717C43.1626 11.6683 43.2331 11.8227 43.3671 11.9421C43.501 12.0614 43.6773 12.1597 43.8959 12.244C44.1144 12.3212 44.3612 12.3914 44.6432 12.4476C44.9252 12.5037 45.2143 12.5669 45.5104 12.6301C45.7995 12.6933 46.0815 12.7775 46.3636 12.8688C46.6456 12.9601 46.8924 13.0864 47.1109 13.2479C47.3295 13.4094 47.5058 13.606 47.6397 13.8447C47.7737 14.0834 47.8442 14.3853 47.8442 14.7363C47.8442 15.1645 47.7455 15.5226 47.5481 15.8245C47.3506 16.1193 47.0968 16.3651 46.7866 16.5476C46.4764 16.7301 46.1238 16.8705 45.7431 16.9548C45.3624 17.039 44.9816 17.0812 44.608 17.0812C44.1497 17.0812 43.7266 17.032 43.3389 16.9267C42.9511 16.8214 42.6127 16.667 42.3306 16.4634C42.0486 16.2527 41.823 15.993 41.6608 15.6841C41.4987 15.3752 41.4141 15.0031 41.4 14.5748H43.0075V14.5608ZM48.2672 9.66742H49.4729V7.50507H51.0663V9.66742H52.5046V10.8539H51.0663V14.7012C51.0663 14.8697 51.0734 15.0101 51.0875 15.1365C51.1016 15.2558 51.1368 15.3611 51.1862 15.4454C51.2355 15.5296 51.3131 15.5928 51.4188 15.6349C51.5246 15.677 51.6586 15.6981 51.8419 15.6981C51.9547 15.6981 52.0675 15.6981 52.1803 15.6911C52.2931 15.6841 52.4059 15.67 52.5187 15.6419V16.8706C52.3425 16.8916 52.1662 16.9057 52.004 16.9267C51.8348 16.9478 51.6656 16.9548 51.4893 16.9548C51.0663 16.9548 50.7279 16.9127 50.4741 16.8354C50.2202 16.7582 50.0158 16.6389 49.8748 16.4844C49.7267 16.33 49.635 16.1404 49.5786 15.9087C49.5293 15.677 49.494 15.4103 49.487 15.1154V10.8679H48.2813V9.66742H48.2672ZM53.6327 9.66742H55.1415V10.6433H55.1698C55.3954 10.222 55.7056 9.92718 56.1075 9.74464C56.5094 9.56211 56.9394 9.47084 57.4118 9.47084C57.9829 9.47084 58.4765 9.56913 58.8995 9.77273C59.3226 9.9693 59.6751 10.2431 59.9571 10.5941C60.2391 10.9452 60.4436 11.3524 60.5846 11.8157C60.7256 12.2791 60.7961 12.7775 60.7961 13.3041C60.7961 13.7885 60.7327 14.2589 60.6058 14.7082C60.4788 15.1645 60.2885 15.5647 60.0347 15.9157C59.7808 16.2668 59.4565 16.5406 59.0617 16.7512C58.6668 16.9618 58.2086 17.0671 57.6727 17.0671C57.44 17.0671 57.2074 17.0461 56.9747 17.0039C56.742 16.9618 56.5164 16.8916 56.3049 16.8003C56.0934 16.7091 55.8889 16.5897 55.7126 16.4423C55.5293 16.2949 55.3813 16.1264 55.2544 15.9368H55.2262V19.5314H53.6327V9.66742ZM59.2027 13.276C59.2027 12.9531 59.1604 12.6371 59.0758 12.3282C58.9912 12.0193 58.8643 11.7525 58.695 11.5138C58.5258 11.2751 58.3143 11.0856 58.0675 10.9452C57.8137 10.8048 57.5246 10.7275 57.2003 10.7275C56.5305 10.7275 56.0229 10.9592 55.6844 11.4226C55.346 11.8859 55.1768 12.5037 55.1768 13.276C55.1768 13.6411 55.2191 13.9781 55.3108 14.287C55.4024 14.5959 55.5293 14.8627 55.7126 15.0873C55.8889 15.312 56.1004 15.4875 56.3472 15.6139C56.594 15.7473 56.883 15.8104 57.2074 15.8104C57.574 15.8104 57.8772 15.7332 58.131 15.5858C58.3848 15.4383 58.5893 15.2418 58.7514 15.0101C58.9136 14.7714 59.0335 14.5046 59.104 14.2027C59.1674 13.9008 59.2027 13.5919 59.2027 13.276ZM62.0159 6.92236H63.6093V8.42477H62.0159V6.92236ZM62.0159 9.66742H63.6093V16.8706H62.0159V9.66742ZM65.0335 6.92236H66.627V16.8706H65.0335V6.92236ZM71.513 17.0671C70.9349 17.0671 70.4202 16.9688 69.9689 16.7793C69.5177 16.5897 69.137 16.3229 68.8197 15.993C68.5095 15.656 68.2697 15.2558 68.1076 14.7925C67.9454 14.3291 67.8608 13.8166 67.8608 13.262C67.8608 12.7144 67.9454 12.2089 68.1076 11.7455C68.2697 11.2822 68.5095 10.882 68.8197 10.545C69.1299 10.208 69.5177 9.94824 69.9689 9.75868C70.4202 9.56913 70.9349 9.47084 71.513 9.47084C72.0912 9.47084 72.6059 9.56913 73.0571 9.75868C73.5083 9.94824 73.8891 10.215 74.2063 10.545C74.5166 10.882 74.7563 11.2822 74.9184 11.7455C75.0806 12.2089 75.1652 12.7144 75.1652 13.262C75.1652 13.8166 75.0806 14.3291 74.9184 14.7925C74.7563 15.2558 74.5166 15.656 74.2063 15.993C73.8961 16.33 73.5083 16.5897 73.0571 16.7793C72.6059 16.9688 72.0912 17.0671 71.513 17.0671ZM71.513 15.8104C71.8655 15.8104 72.1758 15.7332 72.4366 15.5858C72.6975 15.4383 72.909 15.2418 73.0782 15.0031C73.2475 14.7644 73.3673 14.4906 73.4519 14.1887C73.5295 13.8868 73.5718 13.5779 73.5718 13.262C73.5718 12.9531 73.5295 12.6512 73.4519 12.3423C73.3744 12.0334 73.2475 11.7666 73.0782 11.5279C72.909 11.2892 72.6975 11.0996 72.4366 10.9522C72.1758 10.8048 71.8655 10.7275 71.513 10.7275C71.1605 10.7275 70.8503 10.8048 70.5894 10.9522C70.3285 11.0996 70.117 11.2962 69.9478 11.5279C69.7786 11.7666 69.6587 12.0334 69.5741 12.3423C69.4965 12.6512 69.4542 12.9531 69.4542 13.262C69.4542 13.5779 69.4965 13.8868 69.5741 14.1887C69.6517 14.4906 69.7786 14.7644 69.9478 15.0031C70.117 15.2418 70.3285 15.4383 70.5894 15.5858C70.8503 15.7402 71.1605 15.8104 71.513 15.8104ZM75.6306 9.66742H76.8362V7.50507H78.4296V9.66742H79.868V10.8539H78.4296V14.7012C78.4296 14.8697 78.4367 15.0101 78.4508 15.1365C78.4649 15.2558 78.5001 15.3611 78.5495 15.4454C78.5989 15.5296 78.6764 15.5928 78.7822 15.6349C78.8879 15.677 79.0219 15.6981 79.2052 15.6981C79.318 15.6981 79.4308 15.6981 79.5436 15.6911C79.6564 15.6841 79.7693 15.67 79.8821 15.6419V16.8706C79.7058 16.8916 79.5295 16.9057 79.3674 16.9267C79.1982 16.9478 79.0289 16.9548 78.8527 16.9548C78.4296 16.9548 78.0912 16.9127 77.8374 16.8354C77.5836 16.7582 77.3791 16.6389 77.2381 16.4844C77.09 16.33 76.9984 16.1404 76.942 15.9087C76.8926 15.677 76.8574 15.4103 76.8503 15.1154V10.8679H75.6447V9.66742H75.6306Z" fill="#191919"/>
<path d="M19.1273 6.92231H11.8229L9.56673 0L7.30349 6.92231L-0.000915527 6.91529L5.91453 11.1979L3.65129 18.1131L9.56673 13.8376L15.4751 18.1131L13.2189 11.1979L19.1273 6.92231Z" fill="#00B67A"/>
<path d="M13.7255 12.7633L13.2179 11.1978L9.56567 13.8375L13.7255 12.7633Z" fill="#005128"/>
</g>
<path d="M6.36712 35.2263V32.9586H2.57277V31.6347L6.0504 26.3581H7.68469V31.641H8.4955V32.9586H7.68469V35.2263H6.36712ZM4.10571 31.6347L6.36712 31.641L6.35445 28.176L4.10571 31.6347ZM10.4514 35.391C10.2571 35.391 10.0924 35.3234 9.95728 35.1883C9.82637 35.0532 9.76091 34.8885 9.76091 34.6942C9.76091 34.5042 9.82637 34.3416 9.95728 34.2065C10.0924 34.0713 10.2571 34.0038 10.4514 34.0038C10.6456 34.0038 10.8103 34.0713 10.9455 34.2065C11.0806 34.3416 11.1482 34.5042 11.1482 34.6942C11.1482 34.8885 11.0806 35.0532 10.9455 35.1883C10.8103 35.3234 10.6456 35.391 10.4514 35.391ZM15.3284 35.391C14.7625 35.391 14.2452 35.2517 13.7765 34.9729C13.3077 34.69 12.9319 34.3142 12.6489 33.8454C12.3702 33.3724 12.2309 32.8509 12.2309 32.2808C12.2309 31.9767 12.2668 31.7022 12.3386 31.4573C12.4103 31.2124 12.5201 30.9548 12.6679 30.6845L15.1637 26.3581H16.6967L14.9674 29.3479C15.3179 29.2804 15.6599 29.2782 15.9935 29.3416C16.3314 29.4007 16.6481 29.5168 16.9437 29.69C17.2393 29.8589 17.499 30.0743 17.7229 30.3361C17.9509 30.5937 18.1283 30.8872 18.255 31.2166C18.3816 31.546 18.445 31.9007 18.445 32.2808C18.445 32.7073 18.3626 33.1085 18.1979 33.4843C18.0375 33.8602 17.8137 34.1917 17.5265 34.4789C17.2435 34.7618 16.912 34.9856 16.532 35.1503C16.1561 35.3108 15.7549 35.391 15.3284 35.391ZM15.3284 34.0734C15.6747 34.0734 15.983 33.989 16.2533 33.8201C16.5235 33.6511 16.7368 33.4294 16.893 33.1549C17.0493 32.8805 17.1274 32.5891 17.1274 32.2808C17.1274 31.9556 17.0472 31.6579 16.8867 31.3876C16.7305 31.1174 16.5172 30.902 16.2469 30.7415C15.9767 30.5768 15.6747 30.4945 15.3411 30.4945C14.9948 30.4945 14.6865 30.5789 14.4163 30.7478C14.146 30.9168 13.9327 31.1364 13.7765 31.4066C13.6244 31.6769 13.5484 31.9683 13.5484 32.2808C13.5484 32.6228 13.6308 32.929 13.7955 33.1993C13.9644 33.4696 14.184 33.6828 14.4543 33.8391C14.7245 33.9953 15.0159 34.0734 15.3284 34.0734Z" fill="black"/>
<rect width="8.89418" height="8.89418" transform="translate(23.289 26.2793)" fill="#00B878"/>
<path d="M31.0967 29.9813H28.5313L27.7389 27.55L26.944 29.9813L24.3786 29.9788L26.4562 31.4829L25.6613 33.9117L27.7389 32.41L29.814 33.9117L29.0216 31.4829L31.0967 29.9813Z" fill="#F5F5F5"/>
<path d="M29.2006 32.0323L29.0223 31.4824L27.7396 32.4095L29.2006 32.0323Z" fill="#00B87C"/>
<rect width="8.89418" height="8.89418" transform="translate(34.6942 26.2793)" fill="#00B878"/>
<path d="M42.5005 29.9813H39.935L39.1426 27.55L38.3477 29.9813L35.7823 29.9788L37.8599 31.4829L37.065 33.9117L39.1426 32.41L41.2177 33.9117L40.4253 31.4829L42.5005 29.9813Z" fill="#F5F5F5"/>
<path d="M40.6044 32.0323L40.4261 31.4824L39.1434 32.4095L40.6044 32.0323Z" fill="#00B87C"/>
<rect width="8.89418" height="8.89418" transform="translate(46.0989 26.2793)" fill="#00B878"/>
<path d="M53.9051 29.9813H51.3397L50.5473 27.55L49.7524 29.9813L47.187 29.9788L49.2646 31.4829L48.4697 33.9117L50.5473 32.41L52.6224 33.9117L51.83 31.4829L53.9051 29.9813Z" fill="#F5F5F5"/>
<path d="M52.0089 32.0323L51.8306 31.4824L50.5479 32.4095L52.0089 32.0323Z" fill="#00B87C"/>
<rect width="8.89418" height="8.89418" transform="translate(57.5039 26.2793)" fill="#00B878"/>
<path d="M65.3129 29.9813H62.7474L61.955 27.55L61.1601 29.9813L58.5947 29.9788L60.6723 31.4829L59.8774 33.9117L61.955 32.41L64.0302 33.9117L63.2377 31.4829L65.3129 29.9813Z" fill="#F5F5F5"/>
<path d="M63.4155 32.0323L63.2372 31.4824L61.9545 32.4095L63.4155 32.0323Z" fill="#00B87C"/>
<g clip-path="url(#clip1_58_500)">
<rect width="8.89418" height="8.89418" transform="translate(68.9089 26.2793)" fill="#00B878"/>
<rect x="73.3568" y="26.2793" width="4.44709" height="8.89418" fill="#D9D9D9"/>
<path d="M76.7163 29.9813H74.1509L73.3584 27.55L72.5636 29.9813L69.9981 29.9788L72.0757 31.4829L71.2808 33.9117L73.3584 32.41L75.4336 33.9117L74.6412 31.4829L76.7163 29.9813Z" fill="#F5F5F5"/>
<path d="M74.8213 32.0323L74.643 31.4824L73.3603 32.4095L74.8213 32.0323Z" fill="#D9D9D9"/>
</g>
<defs>
<clipPath id="clip0_58_500">
<rect width="79.8691" height="19.5313" fill="white"/>
</clipPath>
<clipPath id="clip1_58_500">
<rect width="8.89418" height="8.89418" fill="white" transform="translate(68.9089 26.2793)"/>
</clipPath>
</defs>
</svg>
