<svg width="106" height="51" viewBox="0 0 106 51" fill="none" xmlns="http://www.w3.org/2000/svg">
<path d="M47.7183 9.8884H37.7018L40.0857 0.0819092H56.2299L57.8136 17.9027L65.0877 0.0819092H76.2126L60.9436 32.2504H50.9158L47.7183 9.8884Z" fill="#183884"/>
<path d="M30.7715 33.8048C25.5146 33.7967 20.6659 31.1188 20.6644 25.9908C20.6644 25.3577 20.7394 24.6918 20.8954 23.9887L23.9866 11.3433H33.5199L30.998 21.3465C30.8776 21.8261 30.828 22.2515 30.828 22.6198C30.8332 24.0163 31.5533 24.6048 32.3728 24.6093C33.2897 24.6093 34.3535 23.8432 34.666 22.4594L37.3803 11.3433H47.0146L43.7859 24.6093C42.3204 30.8492 36.2964 33.8048 30.7759 33.8048H30.7715Z" fill="#183884"/>
<path d="M2.58866 0.0826416L0 9.88757H9.96755L4.03424 32.2504H14.8697L20.7249 9.88757H33.8849L36.2976 0.0826416H2.58866Z" fill="#183884"/>
<path d="M78.346 0.000366211L74.2523 17.6146C69.5678 39.0411 96.5304 38.9469 100.51 20.5091C101.98 13.685 103.845 6.80358 105.223 0.00182205L78.346 0.000366211Z" fill="white"/>
<path d="M100.525 11.7211H100.486L99.7339 12.6246L99.4334 11.7197L98.4941 11.7211L99.0204 10.8762L98.6909 9.94314L99.8014 9.93552L100.37 9.05005L100.726 9.93406L100.781 9.93552L101.8 9.93877L101.073 10.8407L101.481 11.7323L100.525 11.7211ZM98.1111 8.23917L98.0397 8.20355L98.1111 8.23917ZM98.2794 17.342C97.6485 18.3827 96.2943 19.5037 94.9024 19.5618C93.8266 19.598 93.0574 20.123 93.0634 21.1875C93.0634 21.5595 93.1546 21.9924 93.3462 22.4941C93.5379 22.9796 94.2349 23.7452 95.059 23.9217C95.4197 23.9945 95.7451 24.0398 95.9766 24.0762C96.0769 24.0918 96.1607 24.1082 96.2185 24.1214C95.7739 24.391 95.6329 24.5351 95.6188 24.6917C95.6173 24.7875 95.7101 24.8401 95.7695 24.8401C95.8444 24.8416 96.0235 24.8504 96.1986 24.8572C95.9025 25.0384 95.6863 25.1579 95.6558 25.3362C95.6922 25.518 95.8564 25.5077 96.1318 25.5194C96.1838 25.5194 96.2432 25.518 96.307 25.5165C96.1926 25.6784 95.7939 25.861 95.1718 25.8551C95.128 25.8551 95.0819 25.8534 95.0346 25.8519C94.9818 25.8446 94.9225 25.8431 94.8689 25.8431C94.3685 25.8411 93.984 26.1304 93.5944 27.0517C93.0375 28.0599 92.1643 30.4231 90.8712 30.5062C90.8667 30.4974 90.8303 30.4943 90.8013 30.4943C90.5334 30.5032 90.3172 30.7608 90.1472 30.9552C90.0879 31.0281 89.8867 31.0763 89.6811 31.0734C89.4761 31.0748 89.2602 31.034 89.1903 30.9992C89.2171 31.0102 89.2111 30.9813 89.2111 30.9441C89.2111 30.8128 89.289 30.6183 89.3997 30.4684C89.5066 30.3168 89.6505 30.2145 89.7166 30.2189C90.153 30.1596 90.3648 29.9391 90.3707 29.7349C90.3707 29.6257 90.2794 29.5276 90.1578 29.5276C90.1199 29.5276 90.0826 29.5352 90.0462 29.5484C89.672 29.688 89.4575 30.1766 89.2646 30.1491H89.2415C89.0211 30.115 88.7322 30.0386 88.6001 30.0013C88.6528 29.7995 88.8541 29.2115 89.4716 29.149C89.8273 29.1446 90.0589 29.0027 90.0737 28.7956C90.0723 28.6562 89.9401 28.564 89.7694 28.5552C89.5616 28.6532 89.3789 28.6991 89.2021 28.6991C88.9705 28.6991 88.75 28.6227 88.6076 28.4824C88.6543 28.3175 89.0634 27.8743 89.5994 27.8743C89.7998 27.8743 90.0174 27.9316 90.243 28.08C90.48 28.1966 90.6594 28.2509 90.8133 28.2509C91.1889 28.2479 91.3232 27.9272 91.448 27.6086C91.6239 27.1692 92.3997 26.1742 92.3997 26.1713C92.4078 26.155 92.5705 25.8751 92.5735 25.6146C92.5735 25.4243 92.4442 25.2352 92.1458 25.2352C92.0865 25.2352 92.0224 25.2426 91.9484 25.2551C91.6788 25.2974 91.364 25.3503 91.0492 25.3503C90.3002 25.3391 89.5868 25.091 89.4561 23.7029C89.4455 23.6167 89.4426 23.5365 89.4426 23.4592C89.4472 22.3746 90.1331 21.8438 90.226 21.5795C90.2444 21.4978 90.3069 21.2224 90.3069 20.8713C90.3098 20.1935 90.0737 19.2002 88.8889 18.8214C86.3053 18.6396 85.332 16.8624 85.0462 15.8095C85.3899 15.8341 85.7857 15.8468 86.2066 15.8468C88.0047 15.8453 90.2638 15.621 91.1986 15.1146C91.6209 16.6077 93.1132 18.3077 95.091 18.3107C95.5936 18.3107 96.1272 18.2008 96.6796 17.947C97.9528 17.3611 98.465 16.287 98.4621 15.1754C98.4606 14.2194 98.0955 13.232 97.5358 12.4643C97.0145 11.7553 96.8817 11.1829 96.8802 10.7144C96.8788 10.1746 97.0627 9.7767 97.0658 9.44798C97.0658 9.41013 97.0643 9.37283 97.0582 9.33643C97.0368 9.21771 97.0279 9.08555 97.0279 8.94309C97.0265 8.15304 97.321 7.07291 97.7138 6.43821C98.0747 5.8287 99.2625 5.14114 99.7391 4.93472C99.3338 5.34173 98.1645 6.30896 98.1458 6.86952V7.00829L98.2677 6.93862C98.4563 6.82584 99.0539 6.44258 99.4571 6.23258C99.6613 6.12181 99.8289 5.94821 99.9529 5.79522C99.8349 6.17086 99.5914 6.73658 99.2002 6.90222C98.4985 7.2221 98.1259 7.84795 97.9663 8.16715L97.8891 8.32249L98.0591 8.28161C98.31 8.22001 100.121 7.62003 101.037 5.27486C100.954 6.53912 100.244 8.30379 99.0812 8.70934C97.7517 9.16865 97.2669 9.59045 97.2743 10.5355C97.2743 10.5755 97.2758 10.6157 97.2774 10.6566C97.3152 11.6639 98.0213 12.1873 98.379 13.1145C98.5981 13.6202 98.6694 13.9853 98.9084 14.0411C98.9359 14.0411 98.9692 14.03 98.9952 14.01C99.0494 13.9625 99.1363 13.8793 99.2201 13.8021C99.091 14.0975 98.91 14.4814 98.9053 14.6803C98.9053 14.7399 98.9476 14.84 99.0436 14.84C99.0554 14.84 99.0738 14.8385 99.0924 14.8341L99.3611 14.7613C99.2336 15.0115 99.0072 15.3648 98.9981 15.5504C98.9981 15.6047 99.0554 15.6864 99.1303 15.6864C99.1535 15.6864 99.1787 15.6818 99.2031 15.6759L99.7391 15.4962C99.3568 15.9158 98.5617 16.8148 98.2794 17.342ZM98.52 22.4503L97.5631 22.4556H97.5252L96.7725 23.3614L96.4725 22.4548L95.5313 22.4556L96.0561 21.6136L95.7315 20.6611L96.8438 20.6716L97.4124 19.7845L97.7673 20.6716L98.8378 20.6731L98.1126 21.5737L98.52 22.4503ZM85.9555 24.7659C85.9555 24.8105 85.9571 24.8586 85.9585 24.91C85.966 25.6992 86.1412 25.708 86.3773 26.0138H86.3587C86.009 26.0155 85.7946 26.1854 85.7946 26.5142C85.7946 26.5953 85.8063 26.6872 85.8281 26.7897C85.4759 26.6338 85.1464 26.4772 84.9147 26.4728C84.7857 26.4622 84.655 26.5536 84.6459 26.7007C84.6379 26.7407 84.6348 26.7912 84.6348 26.8343C84.6348 27.0361 84.6882 27.2441 84.7217 27.3636C84.398 27.2575 84.0447 26.8743 83.8383 26.7066C83.7848 26.6643 83.7284 26.6628 83.6647 26.6599C83.1019 26.6784 81.407 27.2708 81.1908 27.6265C81.0402 27.9516 81.049 28.5025 80.7454 28.7666C80.6111 28.4609 80.2689 28.2145 79.8916 28.2115C79.8019 28.2115 79.7121 28.2256 79.6221 28.2574C79.1523 28.4444 78.6169 29.2368 78.2502 29.2165C78.2227 29.2165 78.2028 29.2145 78.1819 29.21C77.7038 29.0858 77.7981 29.1833 77.6066 28.9843C77.64 28.8418 77.7692 28.3584 77.8746 28.3472C78.0936 28.2694 78.1863 28.1995 78.6014 28.1602C78.769 28.1468 78.8894 28.0599 78.8894 27.9346C78.8797 27.7748 78.7305 27.665 78.5502 27.662C78.5011 27.662 78.4536 27.6717 78.4054 27.6881C78.34 27.7125 78.2457 27.726 78.1388 27.726C77.8212 27.7325 77.4395 27.5915 77.3919 27.4297C77.593 27.1817 77.7661 26.9293 78.0809 26.9322C78.1419 26.9322 78.2078 26.9427 78.285 26.9627C78.3704 26.9932 78.4521 27.0088 78.527 27.0088C78.7632 27.0088 78.9074 26.8432 78.9074 26.6746C78.9074 26.5187 78.7781 26.3679 78.5696 26.3679C78.5487 26.3679 78.5405 26.371 78.5405 26.371C78.4573 26.371 78.369 26.3755 78.285 26.3755C77.9399 26.38 77.6473 26.3154 77.6021 26.1773C77.9184 25.8335 78.2607 25.6554 78.5983 25.5024C78.6304 25.4875 78.6639 25.4801 78.7023 25.4801C78.9785 25.4705 79.4277 25.9039 79.5828 26.135C79.6742 26.2634 79.8234 26.3154 79.9814 26.3139C80.7009 26.3063 81.9227 25.3664 82.242 25.1803C82.6253 24.9508 83.9384 24.2804 83.9398 24.2804L84.0083 24.2454L83.8605 23.904L83.8138 23.7979L83.7313 23.878C83.7298 23.878 83.5034 24.0991 83.1322 24.0977C82.9022 24.0977 82.6148 24.016 82.2799 23.7259C82.2896 23.7259 82.3001 23.7244 82.3105 23.7244C82.4077 23.7235 82.5205 23.7526 82.6208 23.7541C82.7061 23.7541 82.8338 23.6953 82.8338 23.5611C82.8338 23.547 82.8338 23.5305 82.8308 23.515C82.6014 23.2128 82.4218 23.4986 82.0684 23.0057H82.0898C82.2117 23.0057 82.3788 23.0287 82.5034 23.0287C82.571 23.0222 82.6861 23.0436 82.7151 22.9025C82.7151 22.8692 82.7031 22.8409 82.6861 22.8148C82.5451 22.6152 82.2466 22.428 82.0884 22.1689C82.1293 22.1631 82.1738 22.1601 82.2205 22.1601C82.3565 22.1601 82.499 22.1816 82.5992 22.1816C82.6423 22.1787 82.7425 22.195 82.764 22.0694C82.764 22.042 82.7551 22.0221 82.7454 22.0027C82.548 21.8817 82.4159 21.7725 82.3134 21.6115C82.4597 21.6136 82.6742 21.6923 82.9965 21.6937C83.205 21.6937 83.4605 21.6597 83.776 21.5505C84.5481 21.1631 86.6126 19.9967 86.6126 19.9967C87.3068 19.5238 87.9133 19.3375 88.4018 19.3375C89.2905 19.3418 89.8065 19.9395 89.8109 20.6508C89.8109 21.2402 89.4502 21.9137 88.5949 22.3784C86.2266 23.6531 85.9526 23.9523 85.9555 24.7659ZM86.5095 31.6481L85.554 31.6375H85.5147L84.7641 32.5404L84.4618 31.6375L83.5213 31.639L84.0477 30.7919L83.7226 29.8603L84.8316 29.8545L85.4004 28.9658L85.7567 29.8529L86.8287 29.8545L86.1032 30.7555L86.5095 31.6481ZM78.0268 25.0063L77.9502 25.0324L78.0268 25.0063ZM76.7395 23.9634L77.2673 23.1156L76.9422 22.186L78.0491 22.1772L78.6198 21.2914L78.9754 22.1763L80.0483 22.1801L79.323 23.0814L79.7291 23.9723L78.7752 23.9634H78.7343L77.9822 24.8677L77.6815 23.9605L76.7395 23.9634ZM76.4105 19.3812C76.1277 19.3672 75.8796 19.3086 75.7521 19.2736C75.8418 19.1007 76.0549 18.699 76.274 18.3932C76.5448 18.0205 76.8262 18.042 77.2494 17.9915C77.5211 17.9588 77.692 17.7605 77.6949 17.5699C77.6949 17.4287 77.5745 17.307 77.395 17.307C77.3742 17.3085 77.3704 17.3115 77.3675 17.3115C77.2235 17.3099 77.0253 17.3412 76.8277 17.3412C76.5307 17.3396 76.2606 17.2804 76.104 16.9802C76.104 16.9819 76.1031 16.967 76.1031 16.967C76.0942 16.9 76.2191 16.7079 76.403 16.5622C76.5872 16.4125 76.8233 16.2964 77.0103 16.2964C77.4603 16.3053 77.8805 16.4539 78.2442 16.4562H78.2747C79.6601 16.4154 80.3949 16.0671 80.8012 15.7153C81.0038 15.5408 81.1227 15.3672 81.1982 15.2386C81.2361 15.1763 81.2652 15.1243 81.2851 15.0931C81.288 15.0887 81.2896 15.0849 81.2925 15.0811C82.3742 15.4041 83.4805 15.6706 84.6216 15.8764C84.6112 16.085 84.2853 16.915 83.8361 17.3396C83.7166 17.4525 83.6283 17.4889 83.5933 17.4866C83.5643 17.4851 83.5472 17.4777 83.5399 17.3776C83.5399 17.3115 83.5577 17.2208 83.6036 17.1191C83.6312 17.048 83.646 16.9864 83.646 16.932C83.646 16.809 83.5486 16.7176 83.4441 16.7176C83.2718 16.7212 83.0944 16.8801 83.047 17.1569C83.0321 17.2854 82.7959 17.9082 82.6253 18.0384C82.5354 18.1153 82.4566 18.1682 82.4106 18.195C82.4218 18.12 82.4685 17.9723 82.5524 17.7591C82.5695 17.693 82.5801 17.6292 82.5801 17.5653C82.5768 17.4265 82.5451 17.2474 82.3668 17.229C82.2435 17.2366 82.1523 17.3276 82.032 17.5082C81.9638 17.6336 81.7433 18.2922 81.6349 18.3403C81.5451 18.3952 81.4811 18.4184 81.4522 18.4243C81.4537 18.3791 81.4893 18.2743 81.5406 18.1778C81.6029 18.0449 81.6258 17.918 81.6258 17.8184C81.6097 17.7339 81.649 17.6515 81.5056 17.6075C81.4493 17.6108 81.4254 17.6463 81.4129 17.6663C81.0202 18.2848 80.5153 18.0404 80.0586 18.2038C80.0468 18.2022 80.0378 18.2031 80.0334 18.2031C79.7958 18.2046 79.5279 18.4407 79.5279 18.8578C79.5279 18.9738 79.5493 19.1036 79.5962 19.2454C79.6072 19.2804 79.6134 19.3272 79.6134 19.3812C79.6178 19.6648 79.4277 20.1274 79.3274 20.2455C79.2378 20.3589 79.041 20.5098 78.9452 20.5794C78.8389 20.4673 78.594 20.1712 78.5998 19.8928C78.5998 19.8223 78.6139 19.7553 78.6489 19.6849C78.6971 19.5847 78.7173 19.4957 78.7173 19.4146C78.7173 19.235 78.5925 19.1036 78.4448 19.1036C78.2971 19.1036 78.1575 19.2238 78.1114 19.4317C78.0036 19.881 77.8908 20.1104 77.6808 20.2662C77.4641 20.4317 77.3148 20.5492 77.2324 20.5616C77.2109 20.5201 77.1625 20.304 77.1716 20.091C77.1716 19.9619 77.1804 19.8276 77.1989 19.7198C77.2509 19.3894 77.3645 19.4452 77.608 19.1934C77.6876 19.108 77.7252 19.016 77.7252 18.9298C77.7237 18.7658 77.593 18.6434 77.4453 18.642C77.4194 18.642 77.3995 18.647 77.383 18.6516V18.653C77.1278 18.7473 76.7742 19.3924 76.4261 19.3797L76.4105 19.3812ZM77.6808 12.5727L77.3646 11.6775L78.4767 11.6692L79.0431 10.7835L79.4001 11.6692L80.4744 11.6722L79.7456 12.5741L80.1529 13.4681L79.1966 13.4555H79.1567L78.4068 14.3595L78.1041 13.4555H77.1654L77.692 12.6082L77.6808 12.5727ZM79.0736 7.56157C79.0944 7.40331 79.4292 6.97267 79.577 6.99877V6.99272C79.816 7.00683 80.003 7.05813 80.3037 7.13899C80.3356 7.14336 80.3542 7.14482 80.3726 7.14482C80.5532 7.14336 80.6096 6.96886 80.6096 6.83525C80.6066 6.67128 80.5561 6.49902 80.4648 6.40181C80.3006 6.2599 79.9006 6.10422 79.9089 5.82579C79.9089 5.81459 79.9118 5.79824 79.9161 5.77886C79.9511 5.52888 79.9755 5.40254 79.9905 5.34386C80.0713 5.32974 80.2398 5.30454 80.3994 5.30454C80.5338 5.30242 80.6601 5.32829 80.7009 5.36536C80.8836 5.51387 80.8302 5.5095 81.0981 5.80787C81.2029 5.92357 81.3474 5.97262 81.4795 5.97262C81.6749 5.97262 81.8813 5.86802 81.8896 5.65779C81.8896 5.6 81.8724 5.5412 81.836 5.48274C81.6957 5.26221 81.5315 5.0008 81.5315 4.71061C81.5315 4.57173 81.5695 4.42254 81.6713 4.25835C81.6778 4.24424 81.7142 4.22363 81.7855 4.22363C81.9809 4.22072 82.3395 4.4025 82.4781 4.67566C82.6773 5.04549 82.6303 6.13827 82.6757 6.32744C82.7166 6.47606 82.8004 6.79829 83.2526 7.0411C83.6891 7.28168 85.5511 8.10342 85.554 8.10488C85.8674 8.24678 86.1094 8.33661 86.2718 8.40101C86.3514 8.43382 86.4122 8.45969 86.4456 8.48053C86.4486 8.48198 86.4501 8.48288 86.4516 8.48433C86.3706 8.54134 86.0685 8.66992 85.586 8.89179C84.8911 9.21245 84.1241 9.85387 83.6616 10.4072C83.6223 10.436 83.5904 10.4471 83.5704 10.4471C83.4255 10.4983 83.1413 9.75374 82.2741 8.8013C82.1448 8.60451 81.8085 8.46641 81.4893 8.4635H81.4781C81.2346 8.4635 80.9823 8.56744 80.8968 8.83389C80.6399 9.58955 80.1514 9.4724 79.9161 9.49536C79.8857 9.49536 79.8524 9.4976 79.8204 9.4976C79.703 9.4976 79.5679 9.48494 79.4827 9.47677C79.5435 9.20886 79.7684 8.38186 80.1761 8.41534H80.179H80.222C80.5034 8.41534 80.6674 8.27411 80.6674 8.10488C80.6674 7.95189 80.5383 7.81469 80.3585 7.81469C80.3147 7.81469 80.2704 7.82264 80.2266 7.83821C79.9769 7.9231 79.784 8.03062 79.6333 8.02681C79.5524 8.02681 79.4812 8.00531 79.3913 7.93038L79.3408 7.99277L79.3869 7.92747C79.2072 7.80349 79.0594 7.69137 79.0683 7.59416C79.0683 7.58598 79.0698 7.57624 79.0736 7.56157ZM83.6934 1.7995L84.8027 1.79155L85.3713 0.903392L85.7292 1.7901L86.8013 1.79301L86.0744 2.6927L86.4821 3.58579L85.5264 3.57459H85.4871L84.7344 4.47888L84.4344 3.57459H84.3765L83.4952 3.57605L84.02 2.72989L83.6934 1.7995ZM90.3678 5.01581H90.39L90.4056 5.01054L90.4071 5.01581H90.39L90.3857 5.01726C90.3766 5.01726 90.3707 5.01581 90.3678 5.01581ZM87.1406 5.9341C87.1864 5.9341 87.2431 5.93264 87.3098 5.92446C87.5912 5.85099 87.8495 5.82635 88.0825 5.82635C88.4872 5.82635 88.8191 5.908 89.0062 5.99346C89.134 6.04755 89.4673 6.31422 89.8229 6.41289C89.9111 6.43585 90.0039 6.44851 90.0938 6.44851C90.4145 6.44851 90.7158 6.30157 90.8653 6.04016C90.9639 5.85693 91.0063 5.68837 91.0063 5.53829C91.0034 5.11526 90.675 4.85688 90.4071 4.85542C90.3915 4.85542 90.3842 4.85688 90.3795 4.85688C90.3915 4.85542 90.3826 4.85542 90.3678 4.85542C90.2318 4.85542 90.1724 4.7693 90.1724 4.7647C90.1724 4.7647 90.1754 4.72707 90.3261 4.71128C90.3581 4.70467 90.3871 4.70322 90.4159 4.70322C90.9883 4.70467 91.3566 5.20957 91.3596 5.77293C91.3581 6.2029 91.1435 6.65201 90.6292 6.91689C90.4027 6.98533 90.2045 7.01501 90.03 7.01501C89.3083 7.02318 88.9994 6.47987 88.3231 6.43899C88.1873 6.43138 88.0698 6.42992 87.9683 6.42992C87.4695 6.42992 87.2869 6.48782 86.9914 6.50507C86.5109 6.37795 86.2445 6.43899 86.2193 5.53179C86.2193 5.36379 86.3514 5.21696 86.4456 5.2155C86.4924 5.21696 86.5488 5.23846 86.6126 5.33938C86.8243 5.66686 86.7456 5.92738 87.1406 5.9341ZM92.1614 11.4005C91.9937 11.4034 91.811 11.5333 91.618 11.7991C91.376 12.1398 90.8303 12.9929 90.3417 13.7665C90.0967 14.1533 89.8681 14.5178 89.6966 14.7857C89.6126 14.9216 89.543 15.0315 89.4939 15.1087C89.4702 15.1443 89.4517 15.1725 89.4383 15.1919L88.2088 15.2683C88.8905 14.2608 89.8764 12.7873 90.2015 12.3091C90.3113 12.1427 90.361 11.9794 90.361 11.8437C90.361 11.7027 90.2899 11.5571 90.136 11.5571C89.9765 11.5629 89.8214 11.693 89.6312 11.972C89.3847 12.3395 88.805 13.2134 88.2697 13.9965C88.0032 14.3877 87.7477 14.7575 87.5517 15.027C87.4537 15.1613 87.3691 15.2736 87.3082 15.3464C87.2792 15.3842 87.2534 15.4124 87.2363 15.4309C87.2349 15.4333 87.2319 15.4354 87.2289 15.4368L86.3067 15.3857C86.9706 14.3092 87.6913 13.281 88.3566 12.2164C88.4508 12.0596 88.4946 11.926 88.4946 11.8154C88.4946 11.6833 88.4049 11.5681 88.2757 11.5681C88.1086 11.5726 87.9289 11.7056 87.7418 11.972C87.2824 12.6364 85.5643 15.0864 85.3208 15.4333L84.3928 15.3107C85.0782 14.2668 86.1427 12.7307 86.4924 12.1956C86.5978 12.0299 86.6474 11.8836 86.649 11.762C86.649 11.6334 86.5658 11.5125 86.4316 11.5125C86.2615 11.5176 86.0774 11.6595 85.8733 11.9609C85.4352 12.6053 83.8426 14.8124 83.5977 15.1525L82.7685 14.9713C83.3906 13.9886 84.1768 12.8131 84.7871 11.8413C84.8494 11.7397 84.88 11.6461 84.88 11.56C84.88 11.4131 84.7678 11.3001 84.6319 11.3001C84.5058 11.3001 84.3751 11.3811 84.2702 11.5362C84.0128 11.9171 82.8702 13.6024 82.6253 13.9936C82.531 14.1407 82.3319 14.4852 82.0974 14.6729C82.0173 14.7361 81.8537 14.8012 81.7328 14.7998C81.6073 14.7886 81.5532 14.7716 81.5436 14.618C81.5436 14.534 81.5753 14.4021 81.6578 14.223C82.3424 12.7419 83.5139 10.5578 85.7091 9.2941C87.3477 8.33873 89.9765 9.2148 92.4606 7.96533C93.4451 7.52886 94.3366 6.09896 94.6775 5.50278V5.5636C94.6804 9.75307 92.5898 13.4428 91.8979 14.3863L90.393 14.8941C90.6973 14.3938 91.9705 12.5348 92.246 12.1473C92.3588 11.9735 92.4107 11.8185 92.4107 11.6869C92.4107 11.5348 92.3135 11.4005 92.1614 11.4005ZM96.6753 15.8638L95.7198 15.8542H95.681L94.9283 16.7599L94.627 15.8511L93.6871 15.8542L94.2134 15.0086L93.8875 14.0775L94.9938 14.0679L95.5644 13.1815L95.9245 14.0664L96.9944 14.0717L96.267 14.9736L96.6753 15.8638ZM89.2326 2.72843C89.5904 2.58283 90.0359 2.54139 90.425 2.54139C90.7872 2.54139 91.0975 2.57925 91.238 2.59918C91.2045 2.76987 91.1845 2.93026 91.1845 3.07507C91.1859 3.41802 91.3352 3.70026 91.7138 3.70171C92.3805 3.68155 92.4442 2.954 92.4486 2.7225C92.6921 2.69797 93.4874 2.57544 94.2305 2.00827C94.6134 1.54426 95.2038 1.2964 95.6558 1.29696C96.0538 1.30435 96.3114 1.46261 96.3143 1.82179C96.3143 1.93693 96.2869 2.07581 96.2232 2.23832C95.9609 2.9185 95.1368 2.95109 94.8904 3.35496C94.6381 4.6965 93.8786 6.73366 92.0633 7.67346C91.3819 8.02469 90.7693 8.14419 90.2535 8.14419C89.3833 8.14419 88.7744 7.80562 88.5644 7.66237C88.4598 7.5889 88.4158 7.48496 88.4158 7.38394C88.4191 7.23699 88.5022 7.1213 88.6514 7.1213C88.6892 7.1213 88.7337 7.12869 88.785 7.14862C89.1369 7.28314 89.4285 7.4359 89.9809 7.4359C90.1331 7.4359 90.304 7.4247 90.5028 7.40118C91.2268 7.29781 91.8733 6.41144 91.8794 5.60437C91.8794 5.32235 91.7961 5.04694 91.6015 4.82574C91.1058 4.25925 90.4843 4.11522 89.9565 4.11678C89.7129 4.11678 89.4881 4.14792 89.2993 4.18051V4.17906C89.0091 4.22576 88.7871 4.25096 88.632 4.25096C88.4687 4.25544 88.3959 4.2131 88.3959 4.20493C88.393 4.20493 88.3856 4.17379 88.3885 4.11824C88.3856 3.79893 88.5697 2.9652 89.2326 2.72843ZM92.3226 1.15069C92.7212 1.03712 93.0677 1.00968 93.3538 1.00968C93.5741 1.00968 93.7568 1.0276 93.903 1.03499C94.3136 1.05728 94.3991 1.14632 94.3976 1.18037C94.4079 1.2488 94.2423 1.4597 93.9715 1.71494C93.768 1.92282 92.8778 2.2867 92.2779 2.30082C92.1852 2.30149 92.1006 2.30294 92.021 2.30294C91.5905 2.30294 91.2624 2.2615 91.0508 2.1924C90.8347 2.12195 90.7628 2.03414 90.7678 1.97333C90.7375 1.81821 91.2333 1.4411 92.3226 1.15069ZM100.198 5.44398L100.196 5.43144V5.42629C100.196 5.42696 100.198 5.43513 100.198 5.44398ZM97.1067 1.83826L98.2186 1.8471L98.7851 0.958608L99.1423 1.8471L100.212 1.84934L99.4875 2.74926L99.8942 3.64067L98.9373 3.63126H98.9002L98.1504 4.53533L97.8444 3.62813L97.7874 3.62958L96.9061 3.63126L97.4324 2.78634L97.1067 1.83826ZM78.346 0L74.2523 17.6142C69.5678 39.0408 96.5304 38.9465 100.51 20.5098C101.98 13.6855 103.845 6.80344 105.223 0.00145611L78.346 0Z" fill="#C4263A"/>
<path d="M31.678 37.6882L32.0143 36.3728H33.0625L32.7107 37.6882H31.678ZM34.2044 37.6882L34.5533 36.3728H35.551L35.2045 37.6882H34.2044ZM41.8831 44.352C42.3434 44.352 42.7369 44.3441 43.0612 44.33C43.3843 44.3165 43.6336 44.295 43.7702 44.2816L43.8074 44.266C43.981 44.2401 44.1444 44.2028 44.2967 44.1576C44.4474 44.1101 44.5884 44.0551 44.7153 43.9905C44.9202 43.8868 45.1036 43.7611 45.2648 43.6172C45.4244 43.4733 45.5588 43.3097 45.6708 43.1288C45.7829 42.9468 45.8698 42.7464 45.9291 42.5302C45.99 42.3143 46.0258 42.0789 46.0346 41.8251C46.0361 41.7871 46.0361 41.7501 46.0361 41.7122C46.0361 41.4107 45.9885 41.1531 45.9004 40.9422C45.8008 40.7063 45.6478 40.5193 45.4363 40.3759C45.2173 40.2273 44.9159 40.1101 44.5297 40.0314C44.137 39.9504 43.6568 39.9104 43.0917 39.9104H40.6796L39.5222 44.352H41.8831ZM27.1588 45.8919C27.1583 45.8927 27.1583 45.8934 27.1583 45.8943L27.1568 45.8977L27.1588 45.8919ZM9.13927 50.5855L11.9151 39.923H8.20239L8.46582 38.9801H16.4959L16.2494 39.923H12.9322L10.1572 50.5855H9.13927ZM22.697 50.5855L24.1849 44.8437H17.4742L15.9695 50.5855H14.9701L17.9835 38.9801H18.9911L17.7021 43.9341H24.4284L25.7016 38.9801H26.7195L23.6979 50.5855H22.697ZM45.382 50.5855H45.2589H44.6298H44.4918L44.466 50.535L44.431 50.463C44.3969 50.3969 44.3679 50.3279 44.3434 50.2551C44.3212 50.186 44.3003 50.1117 44.2855 50.0375C44.2714 49.9625 44.261 49.8862 44.2565 49.8096C44.2527 49.762 44.2513 49.7131 44.2513 49.6642C44.2513 49.6307 44.2513 49.5981 44.2527 49.5675C44.261 49.3857 44.2745 49.1681 44.2989 48.9158C44.3226 48.6596 44.3516 48.3872 44.3879 48.0955C44.4258 47.7865 44.4554 47.5319 44.4748 47.333C44.4948 47.131 44.5074 46.9677 44.5127 46.8496C44.5141 46.8125 44.5141 46.7776 44.5141 46.7419C44.5141 46.4792 44.4748 46.2587 44.4036 46.0828C44.3241 45.8898 44.2017 45.7418 44.0345 45.6314L44.0123 45.6164C43.8371 45.5095 43.5758 45.4234 43.2321 45.3647C42.8638 45.2995 42.4013 45.2668 41.8503 45.2668L39.2928 45.2654L37.9009 50.5855H36.8829L39.8978 38.9801H42.7123C43.4956 38.9801 44.166 39.0328 44.7212 39.136C45.2871 39.2437 45.7362 39.4055 46.0711 39.6305C46.414 39.8605 46.6687 40.1665 46.8296 40.5428C46.9701 40.8746 47.0399 41.2608 47.0384 41.6966C47.0384 41.7487 47.0369 41.799 47.0369 41.8524C47.022 42.2771 46.95 42.6653 46.8193 43.0189C46.6895 43.3722 46.5001 43.6892 46.2552 43.9632C46.0102 44.2401 45.7101 44.4733 45.3576 44.6633C45.1549 44.7709 44.9344 44.866 44.6983 44.9467C44.7361 44.9735 44.774 44.9996 44.8105 45.0255C44.9738 45.1488 45.1074 45.2845 45.2128 45.4361L45.2401 45.4768C45.3494 45.6439 45.4287 45.8369 45.4763 46.0537C45.5171 46.2312 45.5365 46.4244 45.5365 46.632C45.5365 46.6737 45.535 46.7131 45.535 46.7574C45.5298 46.8963 45.5142 47.079 45.4898 47.3098C45.4666 47.5319 45.4348 47.7998 45.394 48.0984V48.1125C45.3509 48.4183 45.3189 48.685 45.2937 48.9158C45.2707 49.1473 45.2566 49.347 45.2499 49.517C45.2499 49.5431 45.2477 49.5675 45.2477 49.5905C45.2477 49.6439 45.2499 49.6915 45.2566 49.7346C45.2618 49.7978 45.2722 49.8474 45.2856 49.8862C45.298 49.9255 45.3159 49.9611 45.3368 49.993C45.3562 50.0234 45.3799 50.0509 45.4072 50.0732L45.4883 50.1429L45.4869 50.189L45.4852 50.2498L45.4807 50.3708L45.4733 50.5855H45.382ZM46.8972 50.5855L49.9188 38.9801H50.9352L47.907 50.5855H46.8972ZM57.9444 50.5855L53.8566 40.5413L51.241 50.5855H50.2559L53.2702 38.9801H54.2435L58.3555 49.1267L60.9903 38.9801H61.9897L58.968 50.5855H57.9444ZM72.6787 50.5855L75.69 38.9801H82.2186L81.9856 39.9104H76.4533L75.3545 44.1465L80.886 44.148L80.6367 45.0619H75.1266L73.9253 49.6626L80.244 49.6642L79.9958 50.5855H72.6787ZM89.1408 50.5855L85.051 40.5413L82.4362 50.5855H81.4511L84.4645 38.9801H85.4407L89.5514 49.1267L92.184 38.9801H93.1847L90.1631 50.5855H89.1408ZM29.9787 38.9801L28.0691 46.3492L28.0676 46.3583C28.0417 46.4443 28.0186 46.5357 27.9986 46.632C27.9786 46.7242 27.9622 46.8192 27.9481 46.9157C27.9354 47.0055 27.9251 47.1034 27.9148 47.2118C27.9051 47.3181 27.899 47.4197 27.8961 47.5164C27.8931 47.5549 27.8931 47.5935 27.8931 47.632C27.8931 47.961 27.9451 48.2526 28.0506 48.5134C28.1612 48.7925 28.3319 49.0382 28.5642 49.2506L28.591 49.273C28.8391 49.4902 29.1345 49.6582 29.479 49.7681C29.8257 49.88 30.2251 49.9379 30.6786 49.9364C31.2296 49.9379 31.7159 49.8735 32.1406 49.7478C32.5606 49.6254 32.9192 49.4392 33.2193 49.1957C33.5207 48.9507 33.785 48.6247 34.0144 48.2165C34.2444 47.803 34.4391 47.304 34.5918 46.7227L34.6105 46.6537L36.5963 38.9801H37.6128L35.5251 46.987C35.3537 47.6373 35.1286 48.2068 34.8502 48.6885C34.5689 49.1778 34.2303 49.5816 33.8376 49.8994C33.4411 50.2209 32.9846 50.46 32.4672 50.6172C31.9534 50.7754 31.381 50.8513 30.7493 50.8527C30.1552 50.8513 29.6207 50.7785 29.1508 50.6328C28.6772 50.4836 28.2652 50.2609 27.9192 49.9587C27.5732 49.6559 27.3163 49.2982 27.1507 48.8852C27.0038 48.5148 26.9304 48.1058 26.9304 47.6558C26.9304 47.6024 26.9318 47.5504 26.9333 47.4999C26.94 47.3618 26.9474 47.2276 26.96 47.1005C26.9703 46.9765 26.9859 46.8437 27.0053 46.6995C27.0238 46.563 27.0455 46.4316 27.0699 46.3001C27.0958 46.1651 27.1248 46.0337 27.1583 45.8943L28.9557 38.9801M64.6415 50.518C64.0847 50.2936 63.6036 49.9558 63.2072 49.5067C62.8116 49.059 62.5212 48.5275 62.3402 47.9128C62.1834 47.3864 62.1055 46.8036 62.1055 46.162C62.1055 46.0596 62.1084 45.9573 62.1122 45.8548C62.1299 45.3506 62.1945 44.8533 62.3043 44.367C62.4113 43.8806 62.5665 43.4042 62.7654 42.9408C62.9637 42.4753 63.199 42.0411 63.4662 41.6403C63.735 41.2385 64.038 40.8703 64.3764 40.5333L64.4031 40.5072C64.6851 40.234 64.9822 39.9912 65.2904 39.7819C65.6102 39.5645 65.9474 39.3809 66.3031 39.2296C66.6587 39.0795 67.0209 38.9667 67.3906 38.8925C67.7588 38.8175 68.1361 38.7797 68.5199 38.7797C69.1034 38.7797 69.6351 38.8607 70.1147 39.0232C70.5852 39.1843 71.0061 39.4235 71.3723 39.741L71.3982 39.7642C71.7717 40.0937 72.0566 40.4798 72.2481 40.9192C72.4413 41.3551 72.54 41.845 72.5489 42.3804L72.5527 42.6054H71.5793L71.5756 42.517L71.5711 42.393C71.5541 41.9734 71.4715 41.6015 71.3232 41.2756C71.1851 40.9675 70.9884 40.6958 70.7338 40.4582L70.6854 40.4159C70.4039 40.1695 70.0788 39.9847 69.7106 39.8605C69.3378 39.7366 68.9178 39.672 68.4464 39.672C67.7484 39.672 67.0975 39.8205 66.4916 40.1168C65.8827 40.4159 65.3148 40.8652 64.7885 41.4687L64.7611 41.5005C64.2488 42.0961 63.8539 42.7546 63.5814 43.4783C63.3008 44.2169 63.1449 45.024 63.1129 45.9008C63.109 45.9929 63.1076 46.0828 63.1076 46.1718C63.1076 46.7115 63.1708 47.197 63.2955 47.627C63.4344 48.1064 63.6518 48.517 63.9437 48.8653H63.9452L63.9726 48.8955C64.2792 49.2477 64.6475 49.5096 65.0839 49.6856C65.5242 49.8624 66.0357 49.9522 66.6194 49.9522C67.188 49.9522 67.721 49.8512 68.2163 49.6485C68.7143 49.4451 69.1761 49.1423 69.6059 48.7338C70.0374 48.3249 70.3943 47.8459 70.678 47.2981C70.9253 46.8199 71.1159 46.286 71.2519 45.6989H67.0908L67.3401 44.7849H72.5007L71.0032 50.5855H70.0151L70.3707 49.2603C70.2734 49.3566 70.174 49.4495 70.073 49.5371C69.7411 49.8295 69.3863 50.0732 69.0143 50.2654C68.6394 50.463 68.2438 50.6099 67.8318 50.7064C67.4197 50.8029 66.9876 50.8527 66.5398 50.8527C65.8302 50.8527 65.1984 50.7414 64.6415 50.518Z" fill="#183884"/>
</svg>
